<svg id="Layer_1" xmlns="http://www.w3.org/2000/svg" viewBox="0 0 140.7 143.6"><style>.st0{fill:#34bbfe}</style><path class="st0" d="M135.8 17L123 .2l17.7-.2-4.9 17zM129 3.2l5.6 7.3 2.1-7.4-7.7.1zM93.2 98.9l-15.5 14.4-1.9-17.6 17.4 3.2zM80 107.1l6.7-6.2-7.5-1.4.8 7.6z"/><circle class="st0" cx="41.5" cy="99.4" r="4.1"/><path class="st0" d="M114.6 132l-6.4-6.4 6.4-6.4 6.4 6.4-6.4 6.4zm-3.1-6.5l3.1 3.1 3.1-3.1-3.1-3.1-3.1 3.1zM28.9 56.8l-5.2 1.5-1.5-5.2c-.2-.9-1.1-1.4-2-1.1l-.5.1c-.9.2-1.4 1.1-1.1 2l1.5 5.2-5.2 1.5c-.9.2-1.4 1.1-1.1 2l.1.5c.2.9 1.1 1.4 2 1.1l5.2-1.5 1.5 5.2c.2.9 1.1 1.4 2 1.1l.5-.1c.9-.2 1.4-1.1 1.1-2l-1.5-5.2 5.2-1.5c.9-.2 1.4-1.1 1.1-2l-.1-.5c-.2-.8-1.1-1.3-2-1.1zM139.8 93.8l-2.4-2.4 2.4-2.4c.4-.4.4-1 0-1.4l-.2-.2c-.4-.4-1-.4-1.4 0l-2.4 2.4-2.4-2.4c-.4-.4-1-.4-1.4 0l-.2.2c-.4.4-.4 1 0 1.4l2.4 2.4-2.4 2.4c-.4.4-.4 1 0 1.4l.2.2c.4.4 1 .4 1.4 0l2.4-2.4 2.4 2.4c.4.4 1 .4 1.4 0l.2-.2c.4-.4.4-1 0-1.4zM93.4 61c-3.8 0-6.9-3.1-6.9-6.9 0-3.8 3.1-6.9 6.9-6.9 3.8 0 6.9 3.1 6.9 6.9 0 3.8-3.1 6.9-6.9 6.9zm0-10.6c-2.1 0-3.8 1.7-3.8 3.8 0 2.1 1.7 3.8 3.8 3.8 2.1 0 3.8-1.7 3.8-3.8.1-2.1-1.7-3.8-3.8-3.8zM4.1 143.6c0-2.8 2.3-5.1 5.1-5.1s5.1 2.3 5.1 5.1h4.1c0-5.1-4.1-9.2-9.2-9.2S0 138.5 0 143.6h4.1z"/></svg>