<svg xmlns="http://www.w3.org/2000/svg" xmlns:xlink="http://www.w3.org/1999/xlink" width="328.508" height="259.148" viewBox="0 0 328.508 259.148"><defs><path id="a" d="M6.392 84.057h262.933v151.632H6.392z"/></defs><clipPath id="b"><use xlink:href="#a" overflow="visible"/></clipPath><path clip-path="url(#b)" fill="#0087BC" d="M266.492 130.494l-77.345-44.789c-4.201-2.434-11.547-2.139-16.405.657L10.416 179.781c-4.86 2.796-5.393 7.035-1.191 9.469l77.345 44.79c4.201 2.433 11.547 2.139 16.405-.657l162.327-93.418c4.858-2.798 5.391-7.037 1.19-9.471"/><path fill="#0087BC" d="M84.319 217.449L3.826 170.837c-2.645-1.532-3.877-3.597-3.79-5.744l-.018.006.033-11.68 4.476 5.243c.291-.191.583-.383.901-.565l164.664-94.765c6.538-3.762 16.42-4.158 22.072-.884l79.363 45.958c1.605-1.759 4.974-5.473 4.974-5.473l-.038 11.425-.002-.001c.119 2.575-1.714 5.319-5.405 7.443l-164.665 94.765c-6.537 3.762-16.419 4.159-22.072.884"/><path fill="#173D7A" d="M40.793 188.854l4.636 2.677c.616.355 1.115-.022 1.115-.843s-.499-1.774-1.115-2.13l-4.636-2.677c-.616-.355-1.115.021-1.115.843 0 .82.499 1.774 1.115 2.13"/><path fill="#0087BC" d="M170.092 63.332c6.539-3.763 16.42-4.158 22.072-.884l79.363 45.958c1.605-1.759 4.974-5.472 4.974-5.472l-.038 11.424-.002-.001c.119 2.576-1.714 5.319-5.405 7.443l-164.665 94.766c-3.41 1.963-7.729 3-11.884 3.087l.156-112.91 75.429-43.411z"/><path fill="#EBF7FF" d="M272.692 97.317l-80.494-46.613c-5.652-3.274-15.533-2.878-22.07.884L5.462 146.354c-6.538 3.763-7.255 9.466-1.602 12.74l80.493 46.612c5.653 3.274 15.535 2.88 22.071-.884l164.664-94.765c6.538-3.762 7.256-9.466 1.604-12.74"/><path fill="#FFF" d="M84.292 206.953L3.798 160.34c-2.915-1.688-4.122-4.023-3.724-6.404.142 1.935 1.383 3.767 3.786 5.158l80.493 46.612c5.652 3.274 15.534 2.879 22.071-.884l164.665-94.765c3.166-1.822 4.954-4.099 5.327-6.335.193 2.616-1.63 5.419-5.389 7.582l-164.664 94.764c-6.537 3.763-16.419 4.159-22.071.885"/><path fill="#CAE8EF" d="M266.492 99.154l-77.345-44.79c-4.201-2.433-11.547-2.139-16.405.658L10.416 148.44c-4.86 2.797-5.393 7.036-1.191 9.47L86.57 202.7c4.201 2.434 11.547 2.139 16.405-.657l162.327-93.418c4.858-2.798 5.391-7.037 1.19-9.471"/><defs><path id="c" d="M104.271 126.021h41.384v23.893h-41.384z"/></defs><clipPath id="d"><use xlink:href="#c" overflow="visible"/></clipPath><path clip-path="url(#d)" fill="#0087BC" d="M104.271 137.967l20.692-11.946 20.692 11.946-20.692 11.947z"/><defs><path id="e" d="M67.084 148.421h41.383v23.893H67.084z"/></defs><clipPath id="f"><use xlink:href="#e" overflow="visible"/></clipPath><path clip-path="url(#f)" fill="#0087BC" d="M67.084 160.367l20.692-11.946 20.691 11.946-20.691 11.946z"/><defs><path id="g" d="M141.458 104.766h41.385v23.893h-41.385z"/></defs><clipPath id="h"><use xlink:href="#g" overflow="visible"/></clipPath><path clip-path="url(#h)" fill="#0087BC" d="M141.458 116.712l20.692-11.945 20.692 11.945-20.692 11.948z"/><path fill="#FCC956" d="M162.151 116.712V27.27l-23.617-13.636v89.444z"/><path fill="#D1A646" d="M162.151 27.27l23.615-13.635v89.443l-23.615 13.634z"/><path fill="#EBBE48" d="M138.534 13.635L162.15 0l23.616 13.635L162.15 27.27z"/><path fill="#009ECE" d="M124.963 138.54V71.021l-23.616-13.633v67.516z"/><path fill="#007396" d="M124.963 71.022l23.616-13.635v67.518l-23.616 13.635z"/><path fill="#0087BC" d="M101.347 57.387l23.616-13.635 23.616 13.635-23.616 13.635z"/><path fill="#48CBFF" d="M87.776 160.367v-53.13L64.16 93.603v53.129z"/><path fill="#3DB9E0" d="M87.776 107.237l23.616-13.633v53.128l-23.616 13.635z"/><path fill="#66DBFF" d="M64.16 93.603l23.616-13.635 23.615 13.635-23.615 13.634z"/><defs><path id="i" d="M241.482 145.127h47.692v27.534h-47.692z"/></defs><clipPath id="j"><use xlink:href="#i" overflow="visible"/></clipPath><path clip-path="url(#j)" fill="#0087BC" d="M282.19 168.63c-9.313 5.376-24.41 5.376-33.723-.001-9.313-5.376-9.313-14.093-.001-19.47 9.313-5.376 24.411-5.376 33.724 0 9.313 5.377 9.313 14.094 0 19.471"/><defs><path id="k" d="M280.816 163.127h47.692v27.534h-47.692z"/></defs><clipPath id="l"><use xlink:href="#k" overflow="visible"/></clipPath><path clip-path="url(#l)" fill="#0087BC" d="M321.523 186.63c-9.312 5.376-24.41 5.376-33.723-.001-9.313-5.376-9.313-14.093-.001-19.47 9.313-5.376 24.41-5.376 33.724 0 9.313 5.377 9.313 14.094 0 19.471"/><path fill="#F7B93C" d="M288.731 150.241H287.7c-1.157-2.271-3.285-4.413-6.389-6.205-9.893-5.711-25.932-5.711-35.824 0-3.104 1.792-5.234 3.935-6.39 6.205h-1.03v4.137c.001 3.743 2.474 7.486 7.42 10.343 9.893 5.711 25.932 5.711 35.825 0 4.946-2.856 7.419-6.6 7.419-10.343v-4.137z"/><path fill="#FCC956" d="M257.905 140.104c-4.551.581-8.879 1.889-12.418 3.933-3.104 1.792-5.233 3.934-6.39 6.205h-1.03v4.137c.001 3.743 2.474 7.486 7.42 10.342 3.54 2.044 7.868 3.352 12.418 3.934v-28.551z"/><path fill="#D1A646" d="M281.38 164.679c4.899-2.851 7.351-6.575 7.351-10.301v-4.137H287.7c-.985-1.936-2.685-3.775-5.085-5.387h-1.234v19.825z"/><defs><path id="m" d="M238.778 140.977h48.649v28.017h-48.649z"/></defs><clipPath id="n"><use xlink:href="#m" overflow="visible"/></clipPath><path clip-path="url(#n)" fill="#D1A646" d="M287.427 149.76a12.21 12.21 0 0 0-1.099-1.59v12.432c.423-.521.787-1.053 1.099-1.593v-9.249zM245.487 144.036a19.92 19.92 0 0 0-3.539 2.57v15.549c.346.316.709.628 1.1.931v-16.853h2.071v18.263c.123.074.241.15.368.224.239.138.484.27.73.4v-18.887h2.071v19.883c.36.155.727.305 1.099.448v-20.331h2.071v21.045c.362.112.729.219 1.099.319v-21.364h2.071v21.864c.364.078.73.15 1.099.218v-22.082h2.072v22.407c.364.046.73.09 1.098.128v-22.535h2.071v22.703c.365.021.732.034 1.099.045v-22.748h2.071v22.76c.367-.006.733-.017 1.099-.032v-22.728h2.071v22.593a40.07 40.07 0 0 0 1.099-.111v-22.481h2.071v22.188a43.46 43.46 0 0 0 1.099-.2v-21.988h2.071v21.52c.37-.094.736-.194 1.1-.299v-21.221h2.07v20.549c.372-.135.738-.274 1.1-.421v-20.128h2.071v19.193c.373-.188.74-.382 1.099-.583v-18.61h2.071v17.296a19.36 19.36 0 0 0 1.1-.854v-16.441h.183a20.552 20.552 0 0 0-3.13-2.197c-2.308-1.332-4.952-2.349-7.773-3.06H253.26c-2.822.709-5.466 1.726-7.773 3.058"/><path clip-path="url(#n)" fill="#E8A200" d="M239.877 148.959c-.292.422-.56.849-.78 1.282h-.319v7.583c.282.674.649 1.338 1.1 1.989v-10.854z"/><path fill="#FCC956" d="M281.312 160.583c-9.893 5.712-25.933 5.712-35.825 0s-9.893-14.972 0-20.684c9.893-5.711 25.932-5.711 35.824.001 9.893 5.711 9.894 14.972.001 20.683"/><defs><path id="o" d="M238.073 135.619h38.415v21.403h-38.415z"/></defs><clipPath id="p"><use xlink:href="#o" overflow="visible"/></clipPath><path clip-path="url(#p)" fill="#FFF" d="M269.074 152.74c7.282-4.204 9.196-10.331 5.757-15.55-9.504-2.776-21.402-1.875-29.344 2.709-7.283 4.205-9.197 10.332-5.757 15.551 9.504 2.777 21.403 1.875 29.344-2.71"/><defs><path id="q" d="M238.074 150.618h50.65v15.002h-50.65z"/></defs><clipPath id="r"><use xlink:href="#q" overflow="visible"/></clipPath><path clip-path="url(#r)" fill="#FFF" d="M281.312 160.583c-9.893 5.712-25.933 5.712-35.825 0-4.779-2.76-7.243-6.349-7.403-9.965-.173 3.868 2.29 7.768 7.403 10.719 9.893 5.712 25.933 5.712 35.825 0 5.112-2.951 7.575-6.851 7.403-10.718-.16 3.616-2.624 7.204-7.403 9.964"/><path fill="#D1A646" d="M276.114 157.582c-7.021 4.055-18.407 4.055-25.43 0-7.021-4.054-7.022-10.627 0-14.682 7.022-4.054 18.407-4.053 25.43.001 7.021 4.054 7.021 10.627 0 14.681"/><path fill="#F9BF30" d="M250.684 143.849c7.021-4.054 18.407-4.054 25.43 0 3.303 1.907 5.05 4.37 5.247 6.867.222-2.813-1.527-5.667-5.247-7.815-7.022-4.054-18.408-4.054-25.43 0-3.72 2.147-5.468 5.002-5.247 7.814.197-2.496 1.945-4.96 5.247-6.866"/><path fill="#F9BF30" d="M272.242 145.339l-1.394.398.396.157-1.361.786a7.681 7.681 0 0 0-3.45-.807 6.614 6.614 0 0 0-3.323.899 5.074 5.074 0 0 0-1.003.728c-.257.246-.436.503-.537.769s-.161.512-.177.736c-.017.226-.006.491.031.798l.161 1.269c.048.361.059.658.032.89s-.127.473-.301.721c-.174.249-.439.477-.798.684-.643.37-1.212.412-1.71.125-.381-.22-.477-.493-.289-.82s.692-.735 1.517-1.224v-.952l-1.191.447-1.713-.727c-1.05.644-1.724 1.252-2.031 1.824l-.196-.22v.934h.005c.006.642.494 1.272 1.477 1.896l-.678.391-.92-.421v.952l.826.478 1.613-.932a7.035 7.035 0 0 0 3.263.651c1.163-.039 2.188-.314 3.077-.827a5.2 5.2 0 0 0 1.092-.811c.283-.284.485-.578.604-.883.121-.306.196-.595.226-.871s.028-.585-.004-.924l-.137-1.229a6.581 6.581 0 0 1-.031-.537c-.001-.111.02-.267.06-.466s.133-.376.276-.53c.145-.154.343-.305.595-.45.262-.15.566-.248.915-.291.347-.043.652.008.914.152a.845.845 0 0 1 .285.221c.037.05.049.104.05.159l-1.418.294v.953l2.873 1.278c.235-.148.445-.286.629-.414.186-.129.378-.283.579-.464.2-.181.36-.354.479-.519a1.82 1.82 0 0 0 .274-.561c.028-.097.042-.191.047-.285l.003-.003v-.015-.988l-.366.076c-.005-.007-.007-.013-.013-.02a3.419 3.419 0 0 0-.767-.655l1.508-.871v-.949z"/><path fill="#FDD762" d="M254.789 154.619l1.598-.922c-1.092-.692-1.58-1.396-1.465-2.11s.852-1.489 2.211-2.323l2.904 1.231c-.824.488-1.329.896-1.517 1.224s-.091.601.289.82c.498.287 1.067.245 1.709-.125.359-.207.624-.435.799-.684.174-.248.274-.488.301-.721a3.838 3.838 0 0 0-.032-.89l-.161-1.269a4.26 4.26 0 0 1-.032-.798c.017-.225.076-.471.178-.736s.28-.522.537-.769c.257-.248.591-.49 1.003-.728a6.584 6.584 0 0 1 3.323-.899 7.678 7.678 0 0 1 3.45.807l1.517-.876.842.486-1.508.871c.325.214.581.432.767.656.184.224.302.433.35.627.048.195.041.397-.021.604a1.87 1.87 0 0 1-.273.562c-.121.165-.28.338-.48.519a5.828 5.828 0 0 1-.579.463 16.17 16.17 0 0 1-.629.415l-2.873-1.278c.219-.133.397-.244.538-.334.139-.09.28-.188.425-.297a1.74 1.74 0 0 0 .313-.282.788.788 0 0 0 .136-.25.258.258 0 0 0-.044-.243.858.858 0 0 0-.285-.221c-.262-.145-.567-.195-.914-.152a2.415 2.415 0 0 0-.915.291c-.252.146-.45.296-.595.45-.144.154-.236.331-.276.53s-.061.354-.06.466c-.001.111.01.29.031.537l.137 1.229c.031.339.032.647.004.924-.029.276-.104.566-.225.871s-.322.599-.605.883a5.243 5.243 0 0 1-1.092.811c-.888.513-1.914.788-3.077.827a7.067 7.067 0 0 1-3.264-.651l-1.612.932-.828-.478z"/><path fill="#F7B93C" d="M288.981 142.992h-1.031c-1.157-2.271-3.285-4.413-6.389-6.205-9.893-5.712-25.932-5.712-35.824-.001-3.104 1.792-5.234 3.935-6.39 6.206h-1.03v4.136c.001 3.743 2.474 7.486 7.42 10.342 9.893 5.712 25.932 5.712 35.825 0 4.946-2.855 7.419-6.599 7.419-10.342v-4.136z"/><path fill="#FCC956" d="M258.155 132.854c-4.551.581-8.879 1.889-12.418 3.933-3.104 1.792-5.233 3.934-6.39 6.205h-1.03v4.136c.001 3.743 2.474 7.486 7.42 10.342 3.54 2.044 7.868 3.352 12.418 3.934v-28.55z"/><path fill="#D1A646" d="M281.63 157.429c4.899-2.851 7.351-6.575 7.351-10.301v-4.136h-1.031c-.985-1.937-2.685-3.776-5.085-5.387h-1.234v19.824z"/><defs><path id="s" d="M239.028 133.727h48.649v28.017h-48.649z"/></defs><clipPath id="t"><use xlink:href="#s" overflow="visible"/></clipPath><path clip-path="url(#t)" fill="#D1A646" d="M287.677 142.51c-.311-.54-.677-1.07-1.099-1.59v12.431c.423-.521.787-1.053 1.099-1.593v-9.248zM245.737 136.786a19.92 19.92 0 0 0-3.539 2.57v15.549c.346.316.709.628 1.1.931v-16.853h2.071v18.263c.123.074.241.15.368.224.239.138.484.27.73.4v-18.887h2.071v19.883c.36.155.727.305 1.099.448v-20.332h2.071v21.045c.362.112.729.219 1.099.319v-21.365h2.071v21.865c.364.078.73.15 1.099.218v-22.083h2.072v22.408c.364.046.73.09 1.098.128v-22.536h2.071v22.704c.365.021.732.034 1.099.045v-22.749h2.071v22.76c.367-.006.733-.017 1.099-.032v-22.728h2.071v22.593a40.07 40.07 0 0 0 1.099-.111v-22.482h2.071v22.189a43.46 43.46 0 0 0 1.099-.2v-21.989h2.071v21.52c.37-.094.736-.194 1.1-.299v-21.221h2.07v20.549c.372-.135.738-.274 1.1-.421v-20.128h2.071v19.194c.373-.188.74-.382 1.099-.583v-18.611h2.071v17.296a19.36 19.36 0 0 0 1.1-.854v-16.442h.183a20.622 20.622 0 0 0-3.13-2.197c-2.308-1.332-4.952-2.349-7.773-3.06H253.51c-2.822.713-5.466 1.73-7.773 3.062"/><path clip-path="url(#t)" fill="#E8A200" d="M240.127 141.709c-.292.422-.56.849-.78 1.283h-.319v7.582c.282.674.649 1.338 1.1 1.989v-10.854z"/><path fill="#FCC956" d="M281.562 153.333c-9.893 5.712-25.933 5.712-35.825 0s-9.893-14.972 0-20.684c9.893-5.711 25.932-5.711 35.824.001s9.894 14.972.001 20.683"/><defs><path id="u" d="M238.323 128.369h38.415v21.403h-38.415z"/></defs><clipPath id="v"><use xlink:href="#u" overflow="visible"/></clipPath><path clip-path="url(#v)" fill="#FFF" d="M269.324 145.49c7.282-4.204 9.196-10.331 5.757-15.55-9.504-2.776-21.402-1.875-29.344 2.709-7.283 4.205-9.197 10.332-5.757 15.551 9.504 2.777 21.403 1.875 29.344-2.71"/><defs><path id="w" d="M238.324 143.368h50.65v15.002h-50.65z"/></defs><clipPath id="x"><use xlink:href="#w" overflow="visible"/></clipPath><path clip-path="url(#x)" fill="#FFF" d="M281.562 153.333c-9.893 5.712-25.933 5.712-35.825 0-4.779-2.76-7.243-6.349-7.403-9.965-.173 3.868 2.29 7.768 7.403 10.719 9.893 5.712 25.933 5.712 35.825 0 5.112-2.951 7.575-6.851 7.403-10.718-.16 3.616-2.624 7.204-7.403 9.964"/><path fill="#D1A646" d="M276.364 150.332c-7.021 4.055-18.407 4.055-25.43 0-7.021-4.054-7.022-10.627 0-14.682 7.022-4.054 18.407-4.053 25.43.001 7.021 4.054 7.021 10.627 0 14.681"/><path fill="#F9BF30" d="M250.934 136.599c7.021-4.054 18.407-4.054 25.43 0 3.303 1.907 5.05 4.371 5.247 6.867.222-2.812-1.527-5.667-5.247-7.815-7.022-4.054-18.408-4.054-25.43 0-3.72 2.148-5.468 5.002-5.247 7.814.197-2.496 1.945-4.96 5.247-6.866"/><path fill="#F9BF30" d="M272.492 138.089l-1.394.398.396.158-1.361.785a7.68 7.68 0 0 0-3.45-.806 6.594 6.594 0 0 0-3.323.899c-.412.238-.746.48-1.003.728a2.129 2.129 0 0 0-.537.768 2.583 2.583 0 0 0-.177.737c-.017.226-.006.491.031.797l.161 1.269c.048.362.059.658.032.89-.026.232-.127.473-.301.721-.174.249-.439.477-.798.684-.643.37-1.212.412-1.71.125-.381-.22-.477-.493-.289-.82s.692-.735 1.517-1.224v-.952l-1.191.447-1.713-.727c-1.05.645-1.724 1.252-2.031 1.825l-.196-.22v.934h.005c.006.642.494 1.273 1.477 1.896l-.678.391-.92-.421v.952l.826.477 1.613-.931a7.048 7.048 0 0 0 3.263.651c1.163-.039 2.188-.314 3.077-.827a5.2 5.2 0 0 0 1.092-.811c.283-.284.485-.578.604-.883.121-.305.196-.595.226-.871s.028-.585-.004-.925l-.137-1.228a6.581 6.581 0 0 1-.031-.537c-.001-.111.02-.266.06-.466.04-.198.133-.376.276-.53.145-.154.343-.304.595-.45.262-.151.566-.248.915-.292.347-.043.652.009.914.154.134.07.228.144.285.219a.268.268 0 0 1 .05.16l-1.418.295v.952l2.873 1.278c.235-.148.445-.286.629-.414.186-.129.378-.283.579-.463.2-.181.36-.354.479-.519a1.82 1.82 0 0 0 .274-.561c.028-.096.042-.191.047-.284l.003-.004v-.014-.988l-.366.077c-.005-.007-.007-.013-.013-.019a3.37 3.37 0 0 0-.767-.656l1.508-.871v-.953z"/><path fill="#FDD762" d="M255.039 147.369l1.598-.922c-1.092-.692-1.58-1.396-1.465-2.11.115-.716.852-1.489 2.211-2.324l2.904 1.232c-.824.489-1.329.896-1.517 1.224s-.091.601.289.82c.498.287 1.067.245 1.709-.125.359-.207.624-.435.799-.684.174-.248.274-.488.301-.721a3.838 3.838 0 0 0-.032-.89l-.161-1.269a4.247 4.247 0 0 1-.032-.797c.017-.226.076-.471.178-.737.102-.265.28-.522.537-.768.257-.248.591-.49 1.003-.728a6.594 6.594 0 0 1 3.323-.899 7.677 7.677 0 0 1 3.45.806l1.517-.875.842.486-1.508.871c.325.213.581.431.767.656.184.223.302.433.35.628.048.194.041.396-.021.604a1.853 1.853 0 0 1-.273.561c-.121.165-.28.338-.48.519-.201.18-.394.335-.579.463-.184.128-.395.266-.629.415l-2.873-1.279c.219-.133.397-.244.538-.334a7.35 7.35 0 0 0 .425-.296c.144-.108.249-.203.313-.283a.778.778 0 0 0 .136-.25.26.26 0 0 0-.044-.244.87.87 0 0 0-.285-.22c-.262-.144-.567-.196-.914-.153a2.433 2.433 0 0 0-.915.292c-.252.146-.45.296-.595.45a1.078 1.078 0 0 0-.276.53c-.04.2-.061.355-.06.466-.001.111.01.29.031.537l.137 1.228c.031.34.032.648.004.925-.029.276-.104.566-.225.871s-.322.599-.605.883a5.243 5.243 0 0 1-1.092.811c-.888.513-1.914.788-3.077.827a7.067 7.067 0 0 1-3.264-.651l-1.612.932-.828-.478z"/><path fill="#F7B93C" d="M288.981 137.242h-1.031c-1.157-2.271-3.285-4.413-6.389-6.205-9.893-5.712-25.932-5.712-35.824-.001-3.104 1.792-5.234 3.935-6.39 6.206h-1.03v4.137c.001 3.742 2.474 7.485 7.42 10.341 9.893 5.712 25.932 5.712 35.825 0 4.946-2.855 7.419-6.599 7.419-10.341v-4.137z"/><path fill="#FCC956" d="M258.155 127.104c-4.551.581-8.879 1.889-12.418 3.933-3.104 1.792-5.233 3.934-6.39 6.205h-1.03v4.137c.001 3.743 2.474 7.486 7.42 10.341 3.54 2.044 7.868 3.352 12.418 3.934v-28.55z"/><path fill="#D1A646" d="M281.63 151.679c4.899-2.851 7.351-6.575 7.351-10.3v-4.137h-1.031c-.985-1.937-2.685-3.776-5.085-5.387h-1.234v19.824z"/><defs><path id="y" d="M239.028 127.977h48.649v28.017h-48.649z"/></defs><clipPath id="z"><use xlink:href="#y" overflow="visible"/></clipPath><path clip-path="url(#z)" fill="#D1A646" d="M287.677 136.76c-.311-.54-.677-1.07-1.099-1.59v12.431c.423-.521.787-1.053 1.099-1.593v-9.248zM245.737 131.036a19.92 19.92 0 0 0-3.539 2.57v15.549c.346.316.709.628 1.1.931v-16.853h2.071v18.263c.123.074.241.15.368.224.239.138.484.27.73.4v-18.887h2.071v19.883c.36.155.727.305 1.099.448v-20.331h2.071v21.045c.362.112.729.219 1.099.319v-21.364h2.071v21.864c.364.078.73.15 1.099.218v-22.082h2.072v22.407c.364.046.73.09 1.098.128v-22.535h2.071v22.703c.365.021.732.034 1.099.045v-22.748h2.071v22.76c.367-.006.733-.017 1.099-.032v-22.728h2.071v22.593a40.07 40.07 0 0 0 1.099-.111v-22.481h2.071v22.188a43.46 43.46 0 0 0 1.099-.2v-21.988h2.071v21.52c.37-.094.736-.194 1.1-.299v-21.221h2.07v20.549c.372-.135.738-.274 1.1-.421v-20.128h2.071v19.193c.373-.188.74-.382 1.099-.583v-18.61h2.071v17.296a19.36 19.36 0 0 0 1.1-.854v-16.441h.183a20.622 20.622 0 0 0-3.13-2.197c-2.308-1.332-4.952-2.349-7.773-3.06H253.51c-2.822.709-5.466 1.726-7.773 3.058"/><path clip-path="url(#z)" fill="#E8A200" d="M240.127 135.959c-.292.422-.56.849-.78 1.283h-.319v7.582c.282.674.649 1.338 1.1 1.989v-10.854z"/><path fill="#FCC956" d="M281.562 147.583c-9.893 5.712-25.933 5.712-35.825 0-9.893-5.711-9.893-14.972 0-20.684 9.893-5.711 25.932-5.711 35.824.001 9.893 5.712 9.894 14.972.001 20.683"/><defs><path id="A" d="M238.323 122.619h38.415v21.403h-38.415z"/></defs><clipPath id="B"><use xlink:href="#A" overflow="visible"/></clipPath><path clip-path="url(#B)" fill="#FFF" d="M269.324 139.741c7.282-4.205 9.196-10.331 5.757-15.551-9.504-2.776-21.402-1.875-29.344 2.71-7.283 4.205-9.197 10.331-5.757 15.55 9.504 2.777 21.403 1.875 29.344-2.709"/><defs><path id="C" d="M238.324 137.619h50.65v15.001h-50.65z"/></defs><clipPath id="D"><use xlink:href="#C" overflow="visible"/></clipPath><path clip-path="url(#D)" fill="#FFF" d="M281.562 147.583c-9.893 5.712-25.933 5.712-35.825 0-4.779-2.76-7.243-6.349-7.403-9.965-.173 3.868 2.29 7.768 7.403 10.719 9.893 5.712 25.933 5.712 35.825 0 5.112-2.951 7.575-6.85 7.403-10.718-.16 3.616-2.624 7.204-7.403 9.964"/><path fill="#D1A646" d="M276.364 144.582c-7.021 4.055-18.407 4.055-25.43 0-7.021-4.054-7.022-10.627 0-14.682 7.022-4.054 18.407-4.053 25.43.001 7.021 4.054 7.021 10.627 0 14.681"/><path fill="#F9BF30" d="M250.934 130.849c7.021-4.054 18.407-4.054 25.43 0 3.303 1.907 5.05 4.371 5.247 6.867.222-2.812-1.527-5.667-5.247-7.815-7.022-4.054-18.408-4.054-25.43 0-3.72 2.148-5.468 5.002-5.247 7.814.197-2.496 1.945-4.96 5.247-6.866"/><path fill="#F9BF30" d="M272.492 132.339l-1.394.398.396.158-1.361.785a7.68 7.68 0 0 0-3.45-.806 6.594 6.594 0 0 0-3.323.899c-.412.238-.746.48-1.003.728a2.129 2.129 0 0 0-.537.768 2.583 2.583 0 0 0-.177.737c-.017.226-.006.491.031.797l.161 1.269c.048.362.059.658.032.89-.026.231-.127.472-.301.721-.174.248-.439.476-.798.683-.643.37-1.212.412-1.71.124-.381-.219-.477-.492-.289-.819.188-.328.692-.735 1.517-1.224v-.952l-1.191.447-1.713-.727c-1.05.645-1.724 1.252-2.031 1.825l-.196-.22v.934h.005c.006.641.494 1.273 1.477 1.895l-.678.391-.92-.421v.952l.826.477 1.613-.931a7.048 7.048 0 0 0 3.263.651c1.163-.038 2.188-.314 3.077-.827a5.233 5.233 0 0 0 1.092-.81c.283-.285.485-.579.604-.883a3.35 3.35 0 0 0 .226-.871 4.696 4.696 0 0 0-.004-.925l-.137-1.228a6.581 6.581 0 0 1-.031-.537c-.001-.111.02-.266.06-.466.04-.198.133-.376.276-.53.145-.154.343-.304.595-.45.262-.151.566-.248.915-.292.347-.043.652.009.914.154.134.07.228.144.285.219a.268.268 0 0 1 .05.16l-1.418.295v.952l2.873 1.278c.235-.148.445-.286.629-.414.186-.129.378-.283.579-.463.2-.181.36-.354.479-.519a1.82 1.82 0 0 0 .274-.561c.028-.096.042-.191.047-.284l.003-.004v-.014-.988l-.366.077c-.005-.007-.007-.013-.013-.019a3.37 3.37 0 0 0-.767-.656l1.508-.871v-.952z"/><path fill="#FDD762" d="M255.039 141.619l1.598-.922c-1.092-.692-1.58-1.395-1.465-2.11.115-.716.852-1.489 2.211-2.324l2.904 1.232c-.824.489-1.329.896-1.517 1.224-.188.327-.091.6.289.819.498.289 1.067.247 1.709-.124.359-.207.624-.435.799-.684.174-.248.274-.488.301-.72a3.837 3.837 0 0 0-.032-.89l-.161-1.269a4.247 4.247 0 0 1-.032-.797c.017-.226.076-.471.178-.737.102-.265.28-.522.537-.768.257-.248.591-.49 1.003-.728a6.594 6.594 0 0 1 3.323-.899 7.677 7.677 0 0 1 3.45.806l1.517-.875.842.486-1.508.871c.325.213.581.431.767.656.184.223.302.433.35.628.048.194.041.396-.021.604a1.853 1.853 0 0 1-.273.561c-.121.165-.28.338-.48.519-.201.18-.394.335-.579.463-.184.128-.395.266-.629.415l-2.873-1.279c.219-.133.397-.244.538-.334a7.35 7.35 0 0 0 .425-.296c.144-.108.249-.203.313-.283a.778.778 0 0 0 .136-.25.26.26 0 0 0-.044-.244.87.87 0 0 0-.285-.22c-.262-.144-.567-.196-.914-.153a2.433 2.433 0 0 0-.915.292c-.252.146-.45.296-.595.45a1.078 1.078 0 0 0-.276.53c-.04.2-.061.355-.06.466-.001.111.01.29.031.537l.137 1.228c.031.34.032.648.004.925a3.306 3.306 0 0 1-.225.871c-.12.304-.322.598-.605.882a5.173 5.173 0 0 1-1.092.811c-.888.513-1.914.789-3.077.827a7.042 7.042 0 0 1-3.264-.651l-1.612.931-.828-.477z"/><path fill="#F7B93C" d="M288.981 131.492h-1.031c-1.157-2.271-3.285-4.413-6.389-6.205-9.893-5.712-25.932-5.712-35.824-.001-3.104 1.792-5.234 3.935-6.39 6.206h-1.03v4.137c.001 3.742 2.474 7.486 7.42 10.341 9.893 5.712 25.932 5.712 35.825 0 4.946-2.855 7.419-6.599 7.419-10.341v-4.137z"/><path fill="#FCC956" d="M258.155 121.354c-4.551.581-8.879 1.889-12.418 3.933-3.104 1.792-5.233 3.934-6.39 6.205h-1.03v4.137c.001 3.743 2.474 7.486 7.42 10.341 3.54 2.044 7.868 3.352 12.418 3.934v-28.55z"/><path fill="#D1A646" d="M281.63 145.929c4.899-2.851 7.351-6.576 7.351-10.3v-4.137h-1.031c-.985-1.937-2.685-3.776-5.085-5.387h-1.234v19.824z"/><defs><path id="E" d="M239.028 122.227h48.649v28.017h-48.649z"/></defs><clipPath id="F"><use xlink:href="#E" overflow="visible"/></clipPath><path clip-path="url(#F)" fill="#D1A646" d="M287.677 131.01c-.311-.54-.677-1.07-1.099-1.59v12.431c.423-.521.787-1.052 1.099-1.592v-9.249zM245.737 125.286a19.92 19.92 0 0 0-3.539 2.57v15.549c.346.315.709.628 1.1.931v-16.853h2.071v18.263c.123.074.241.15.368.224.239.138.484.27.73.4v-18.887h2.071v19.883c.36.155.727.305 1.099.448v-20.331h2.071v21.045c.362.112.729.219 1.099.319v-21.364h2.071v21.864c.364.078.73.15 1.099.218v-22.082h2.072v22.407c.364.046.73.09 1.098.128v-22.535h2.071v22.703c.365.021.732.034 1.099.045v-22.748h2.071v22.76c.367-.006.733-.017 1.099-.032v-22.728h2.071v22.593a40.07 40.07 0 0 0 1.099-.111v-22.481h2.071v22.188a43.46 43.46 0 0 0 1.099-.2v-21.988h2.071v21.52c.37-.094.736-.194 1.1-.299v-21.221h2.07v20.549c.372-.135.738-.274 1.1-.421v-20.128h2.071v19.193c.373-.188.74-.382 1.099-.583v-18.61h2.071v17.296a19.36 19.36 0 0 0 1.1-.854v-16.441h.183a20.622 20.622 0 0 0-3.13-2.197c-2.308-1.332-4.952-2.349-7.773-3.06H253.51c-2.822.709-5.466 1.726-7.773 3.058"/><path clip-path="url(#F)" fill="#E8A200" d="M240.127 130.209c-.292.422-.56.849-.78 1.283h-.319v7.582c.282.674.649 1.339 1.1 1.989v-10.854z"/><path fill="#FCC956" d="M281.562 141.833c-9.893 5.711-25.933 5.711-35.825 0-9.893-5.712-9.893-14.972 0-20.684s25.932-5.711 35.824 0c9.893 5.712 9.894 14.974.001 20.684"/><defs><path id="G" d="M238.323 116.869h38.415v21.403h-38.415z"/></defs><clipPath id="H"><use xlink:href="#G" overflow="visible"/></clipPath><path clip-path="url(#H)" fill="#FFF" d="M269.324 133.991c7.282-4.205 9.196-10.331 5.757-15.551-9.504-2.776-21.402-1.875-29.344 2.71-7.283 4.205-9.197 10.331-5.757 15.55 9.504 2.776 21.403 1.876 29.344-2.709"/><defs><path id="I" d="M238.324 131.869h50.65v15.001h-50.65z"/></defs><clipPath id="J"><use xlink:href="#I" overflow="visible"/></clipPath><path clip-path="url(#J)" fill="#FFF" d="M281.562 141.833c-9.893 5.711-25.933 5.711-35.825 0-4.779-2.76-7.243-6.349-7.403-9.965-.173 3.867 2.29 7.767 7.403 10.718 9.893 5.712 25.933 5.712 35.825.001 5.112-2.952 7.575-6.851 7.403-10.718-.16 3.616-2.624 7.205-7.403 9.964"/><path fill="#D1A646" d="M276.364 138.833c-7.021 4.054-18.407 4.054-25.43 0-7.021-4.055-7.022-10.628 0-14.682s18.407-4.054 25.43 0c7.021 4.055 7.021 10.627 0 14.682"/><path fill="#F9BF30" d="M250.934 125.099c7.021-4.054 18.407-4.054 25.43 0 3.303 1.907 5.05 4.371 5.247 6.867.222-2.812-1.527-5.667-5.247-7.815-7.022-4.054-18.408-4.054-25.43 0-3.72 2.148-5.468 5.002-5.247 7.814.197-2.496 1.945-4.96 5.247-6.866"/><path fill="#F9BF30" d="M272.492 126.589l-1.394.398.396.158-1.361.785a7.68 7.68 0 0 0-3.45-.806 6.594 6.594 0 0 0-3.323.899c-.412.238-.746.48-1.003.728a2.129 2.129 0 0 0-.537.768 2.583 2.583 0 0 0-.177.737c-.017.226-.006.491.031.797l.161 1.269c.048.362.059.658.032.89-.026.231-.127.472-.301.721-.174.248-.439.476-.798.683-.643.37-1.212.412-1.71.124-.381-.219-.477-.492-.289-.819.188-.328.692-.735 1.517-1.224v-.952l-1.191.447-1.713-.727c-1.05.645-1.724 1.252-2.031 1.825l-.196-.22v.934h.005c.006.641.494 1.273 1.477 1.895l-.678.391-.92-.421v.952l.826.477 1.613-.931a7.048 7.048 0 0 0 3.263.651c1.163-.038 2.188-.314 3.077-.827a5.233 5.233 0 0 0 1.092-.81c.283-.285.485-.579.604-.883a3.35 3.35 0 0 0 .226-.871 4.696 4.696 0 0 0-.004-.925l-.137-1.228a6.581 6.581 0 0 1-.031-.537c-.001-.111.02-.266.06-.466.04-.198.133-.376.276-.53.145-.154.343-.304.595-.45.262-.151.566-.248.915-.292.347-.043.652.009.914.154.134.07.228.144.285.219a.268.268 0 0 1 .05.16l-1.418.295v.952l2.873 1.278c.235-.148.445-.286.629-.414.186-.129.378-.283.579-.463.2-.181.36-.354.479-.519a1.82 1.82 0 0 0 .274-.561c.028-.096.042-.191.047-.284l.003-.004v-.014-.988l-.366.077c-.005-.007-.007-.013-.013-.019a3.37 3.37 0 0 0-.767-.656l1.508-.871v-.952z"/><path fill="#FDD762" d="M255.039 135.869l1.598-.922c-1.092-.692-1.58-1.395-1.465-2.11.115-.716.852-1.489 2.211-2.324l2.904 1.232c-.824.489-1.329.896-1.517 1.224-.188.327-.091.6.289.819.498.289 1.067.247 1.709-.124.359-.207.624-.435.799-.684.174-.248.274-.488.301-.72a3.837 3.837 0 0 0-.032-.89l-.161-1.269a4.247 4.247 0 0 1-.032-.797c.017-.226.076-.471.178-.737.102-.265.28-.522.537-.768.257-.248.591-.49 1.003-.728a6.594 6.594 0 0 1 3.323-.899 7.677 7.677 0 0 1 3.45.806l1.517-.875.842.486-1.508.871c.325.213.581.431.767.656.184.223.302.433.35.628.048.194.041.396-.021.604a1.853 1.853 0 0 1-.273.561c-.121.165-.28.338-.48.519-.201.18-.394.335-.579.463-.184.128-.395.266-.629.415l-2.873-1.279c.219-.133.397-.244.538-.334a7.35 7.35 0 0 0 .425-.296c.144-.108.249-.203.313-.283a.778.778 0 0 0 .136-.25.26.26 0 0 0-.044-.244.87.87 0 0 0-.285-.22c-.262-.144-.567-.196-.914-.153a2.433 2.433 0 0 0-.915.292c-.252.146-.45.296-.595.45a1.078 1.078 0 0 0-.276.53c-.04.2-.061.355-.06.466-.001.111.01.29.031.537l.137 1.228c.031.34.032.648.004.925a3.306 3.306 0 0 1-.225.871c-.12.304-.322.598-.605.882a5.173 5.173 0 0 1-1.092.811c-.888.513-1.914.789-3.077.827a7.042 7.042 0 0 1-3.264-.651l-1.612.931-.828-.477z"/><path fill="#F7B93C" d="M288.981 125.742h-1.031c-1.157-2.271-3.285-4.413-6.389-6.205-9.893-5.712-25.932-5.712-35.824-.001-3.104 1.792-5.234 3.935-6.39 6.206h-1.03v4.137c.001 3.742 2.474 7.486 7.42 10.341 9.893 5.712 25.932 5.712 35.825.001 4.946-2.856 7.419-6.6 7.419-10.342v-4.137z"/><path fill="#FCC956" d="M258.155 115.604c-4.551.581-8.879 1.889-12.418 3.933-3.104 1.792-5.233 3.934-6.39 6.205h-1.03v4.137c.001 3.743 2.474 7.486 7.42 10.341 3.54 2.044 7.868 3.352 12.418 3.933v-28.549z"/><path fill="#D1A646" d="M281.63 140.179c4.899-2.851 7.351-6.576 7.351-10.3v-4.137h-1.031c-.985-1.937-2.685-3.776-5.085-5.387h-1.234v19.824z"/><defs><path id="K" d="M239.028 116.477h48.649v28.017h-48.649z"/></defs><clipPath id="L"><use xlink:href="#K" overflow="visible"/></clipPath><path clip-path="url(#L)" fill="#D1A646" d="M287.677 125.26c-.311-.54-.677-1.07-1.099-1.59v12.431c.423-.521.787-1.052 1.099-1.592v-9.249zM245.737 119.536a19.92 19.92 0 0 0-3.539 2.57v15.549c.346.316.709.628 1.1.931v-16.853h2.071v18.262c.123.075.241.151.368.225.239.137.484.269.73.4v-18.887h2.071v19.883c.36.155.727.305 1.099.448v-20.331h2.071v21.045c.362.112.729.218 1.099.32v-21.365h2.071v21.864c.364.078.73.15 1.099.218v-22.082h2.072v22.407c.364.047.73.09 1.098.128v-22.535h2.071v22.703c.365.021.732.034 1.099.045v-22.748h2.071v22.76c.367-.006.733-.017 1.099-.032v-22.728h2.071v22.593c.367-.032.734-.069 1.099-.112v-22.48h2.071v22.188c.369-.062.734-.129 1.099-.201v-21.987h2.071v21.52c.37-.094.736-.194 1.1-.299v-21.221h2.07v20.549c.372-.135.738-.275 1.1-.421v-20.128h2.071v19.193c.373-.187.74-.381 1.099-.583v-18.61h2.071v17.296c.388-.279.751-.564 1.1-.854v-16.442h.183a20.622 20.622 0 0 0-3.13-2.197c-2.308-1.332-4.952-2.349-7.773-3.06H253.51c-2.822.71-5.466 1.727-7.773 3.059"/><path clip-path="url(#L)" fill="#E8A200" d="M240.127 124.459c-.292.422-.56.849-.78 1.283h-.319v7.582c.282.674.649 1.339 1.1 1.989v-10.854z"/><path fill="#FCC956" d="M281.562 136.083c-9.893 5.711-25.933 5.711-35.825 0-9.893-5.712-9.893-14.972 0-20.684s25.932-5.711 35.824 0c9.893 5.712 9.894 14.974.001 20.684"/><defs><path id="M" d="M238.323 111.119h38.415v21.403h-38.415z"/></defs><clipPath id="N"><use xlink:href="#M" overflow="visible"/></clipPath><path clip-path="url(#N)" fill="#FFF" d="M269.324 128.241c7.282-4.205 9.196-10.331 5.757-15.551-9.504-2.776-21.402-1.875-29.344 2.71-7.283 4.205-9.197 10.331-5.757 15.55 9.504 2.776 21.403 1.876 29.344-2.709"/><defs><path id="O" d="M238.324 126.119h50.65v15.002h-50.65z"/></defs><clipPath id="P"><use xlink:href="#O" overflow="visible"/></clipPath><path clip-path="url(#P)" fill="#FFF" d="M281.562 136.083c-9.893 5.711-25.933 5.711-35.825 0-4.779-2.76-7.243-6.349-7.403-9.965-.173 3.867 2.29 7.767 7.403 10.718 9.893 5.712 25.933 5.712 35.825.001 5.112-2.952 7.575-6.851 7.403-10.718-.16 3.616-2.624 7.205-7.403 9.964"/><path fill="#D1A646" d="M276.364 133.083c-7.021 4.054-18.407 4.054-25.43 0-7.021-4.055-7.022-10.628 0-14.682s18.407-4.054 25.43 0c7.021 4.055 7.021 10.627 0 14.682"/><path fill="#F9BF30" d="M250.934 119.349c7.021-4.054 18.407-4.054 25.43 0 3.303 1.907 5.05 4.371 5.247 6.867.222-2.812-1.527-5.667-5.247-7.815-7.022-4.054-18.408-4.054-25.43 0-3.72 2.148-5.468 5.002-5.247 7.814.197-2.496 1.945-4.96 5.247-6.866"/><path fill="#F9BF30" d="M272.492 120.839l-1.394.398.396.158-1.361.785a7.68 7.68 0 0 0-3.45-.806 6.594 6.594 0 0 0-3.323.899c-.412.238-.746.48-1.003.728a2.129 2.129 0 0 0-.537.768 2.583 2.583 0 0 0-.177.737c-.017.226-.006.491.031.797l.161 1.269c.048.362.059.658.032.89-.026.231-.127.472-.301.721-.174.248-.439.476-.798.683-.643.37-1.212.412-1.71.124-.381-.219-.477-.492-.289-.819.188-.328.692-.735 1.517-1.224v-.952l-1.191.447-1.713-.727c-1.05.645-1.724 1.252-2.031 1.825l-.196-.22v.934h.005c.006.641.494 1.273 1.477 1.895l-.678.391-.92-.421v.952l.826.477 1.613-.931a7.048 7.048 0 0 0 3.263.651c1.163-.038 2.188-.314 3.077-.827a5.233 5.233 0 0 0 1.092-.81c.283-.285.485-.579.604-.883a3.35 3.35 0 0 0 .226-.871 4.696 4.696 0 0 0-.004-.925l-.137-1.228a6.581 6.581 0 0 1-.031-.537c-.001-.111.02-.266.06-.466.04-.198.133-.376.276-.53.145-.154.343-.304.595-.45.262-.151.566-.248.915-.292.347-.043.652.009.914.154.134.07.228.144.285.219a.268.268 0 0 1 .05.16l-1.418.295v.952l2.873 1.278c.235-.148.445-.286.629-.414.186-.129.378-.283.579-.463.2-.181.36-.354.479-.519a1.82 1.82 0 0 0 .274-.561c.028-.096.042-.191.047-.284l.003-.004v-.014-.988l-.366.077c-.005-.007-.007-.013-.013-.019a3.37 3.37 0 0 0-.767-.656l1.508-.871v-.952z"/><path fill="#FDD762" d="M255.039 130.119l1.598-.922c-1.092-.692-1.58-1.395-1.465-2.11.115-.716.852-1.489 2.211-2.324l2.904 1.232c-.824.489-1.329.896-1.517 1.224-.188.327-.091.6.289.819.498.289 1.067.247 1.709-.124.359-.207.624-.435.799-.684.174-.248.274-.488.301-.72a3.837 3.837 0 0 0-.032-.89l-.161-1.269a4.247 4.247 0 0 1-.032-.797c.017-.226.076-.471.178-.737.102-.265.28-.522.537-.768.257-.248.591-.49 1.003-.728a6.594 6.594 0 0 1 3.323-.899 7.677 7.677 0 0 1 3.45.806l1.517-.875.842.486-1.508.871c.325.213.581.431.767.656.184.223.302.433.35.628.048.194.041.396-.021.604a1.853 1.853 0 0 1-.273.561c-.121.165-.28.338-.48.519-.201.18-.394.335-.579.463-.184.128-.395.266-.629.415l-2.873-1.279c.219-.133.397-.244.538-.334a7.35 7.35 0 0 0 .425-.296c.144-.108.249-.203.313-.283a.778.778 0 0 0 .136-.25.26.26 0 0 0-.044-.244.87.87 0 0 0-.285-.22c-.262-.144-.567-.196-.914-.153a2.433 2.433 0 0 0-.915.292c-.252.146-.45.296-.595.45a1.078 1.078 0 0 0-.276.53c-.04.2-.061.355-.06.466-.001.111.01.29.031.537l.137 1.228c.031.34.032.648.004.925a3.306 3.306 0 0 1-.225.871c-.12.304-.322.598-.605.882a5.173 5.173 0 0 1-1.092.811c-.888.513-1.914.789-3.077.827a7.042 7.042 0 0 1-3.264-.651l-1.612.931-.828-.477z"/><path fill="#F7B93C" d="M288.981 119.992h-1.031c-1.157-2.271-3.285-4.413-6.389-6.205-9.893-5.712-25.932-5.712-35.824-.001-3.104 1.792-5.234 3.935-6.39 6.206h-1.03v4.137c.001 3.742 2.474 7.486 7.42 10.341 9.893 5.712 25.932 5.712 35.825.001 4.946-2.856 7.419-6.6 7.419-10.342v-4.137z"/><path fill="#FCC956" d="M258.155 109.854c-4.551.581-8.879 1.889-12.418 3.933-3.104 1.792-5.233 3.934-6.39 6.205h-1.03v4.137c.001 3.743 2.474 7.486 7.42 10.341 3.54 2.044 7.868 3.352 12.418 3.933v-28.549z"/><path fill="#D1A646" d="M281.63 134.429c4.899-2.851 7.351-6.576 7.351-10.3v-4.137h-1.031c-.985-1.937-2.685-3.776-5.085-5.387h-1.234v19.824z"/><defs><path id="Q" d="M239.028 110.727h48.649v28.017h-48.649z"/></defs><clipPath id="R"><use xlink:href="#Q" overflow="visible"/></clipPath><path clip-path="url(#R)" fill="#D1A646" d="M287.677 119.51c-.311-.54-.677-1.07-1.099-1.59v12.431c.423-.521.787-1.052 1.099-1.592v-9.249zM245.737 113.786a19.92 19.92 0 0 0-3.539 2.57v15.549c.346.316.709.628 1.1.931v-16.853h2.071v18.262c.123.075.241.151.368.225.239.137.484.269.73.4v-18.887h2.071v19.883c.36.155.727.305 1.099.448v-20.331h2.071v21.045c.362.112.729.218 1.099.32v-21.365h2.071v21.865c.364.078.73.15 1.099.217v-22.082h2.072v22.407c.364.047.73.09 1.098.128v-22.535h2.071v22.703c.365.02.732.035 1.099.046v-22.749h2.071v22.761c.367-.007.733-.018 1.099-.033v-22.728h2.071v22.594c.367-.034.734-.07 1.099-.113v-22.481h2.071v22.189c.369-.062.734-.129 1.099-.201v-21.988h2.071v21.52c.37-.094.736-.194 1.1-.299v-21.221h2.07v20.549c.372-.135.738-.275 1.1-.421v-20.128h2.071v19.193c.373-.187.74-.381 1.099-.583v-18.61h2.071v17.296c.388-.279.751-.564 1.1-.854v-16.442h.183a20.622 20.622 0 0 0-3.13-2.197c-2.308-1.332-4.952-2.349-7.773-3.06H253.51c-2.822.711-5.466 1.728-7.773 3.06"/><path clip-path="url(#R)" fill="#E8A200" d="M240.127 118.709c-.292.422-.56.849-.78 1.283h-.319v7.582c.282.674.649 1.339 1.1 1.989v-10.854z"/><path fill="#FCC956" d="M281.562 130.333c-9.893 5.711-25.933 5.711-35.825 0-9.893-5.712-9.893-14.972 0-20.684s25.932-5.711 35.824 0c9.893 5.712 9.894 14.974.001 20.684"/><defs><path id="S" d="M238.323 105.369h38.415v21.403h-38.415z"/></defs><clipPath id="T"><use xlink:href="#S" overflow="visible"/></clipPath><path clip-path="url(#T)" fill="#FFF" d="M269.324 122.491c7.282-4.205 9.196-10.331 5.757-15.551-9.504-2.776-21.402-1.875-29.344 2.71-7.283 4.205-9.197 10.331-5.757 15.55 9.504 2.776 21.403 1.876 29.344-2.709"/><defs><path id="U" d="M238.324 120.369h50.65v15.002h-50.65z"/></defs><clipPath id="V"><use xlink:href="#U" overflow="visible"/></clipPath><path clip-path="url(#V)" fill="#FFF" d="M281.562 130.333c-9.893 5.711-25.933 5.711-35.825 0-4.779-2.76-7.243-6.349-7.403-9.965-.173 3.867 2.29 7.767 7.403 10.718 9.893 5.712 25.933 5.712 35.825.001 5.112-2.952 7.575-6.851 7.403-10.718-.16 3.616-2.624 7.205-7.403 9.964"/><path fill="#D1A646" d="M276.364 127.333c-7.021 4.054-18.407 4.054-25.43 0-7.021-4.055-7.022-10.628 0-14.682s18.407-4.054 25.43 0c7.021 4.055 7.021 10.627 0 14.682"/><path fill="#F9BF30" d="M250.934 113.599c7.021-4.054 18.407-4.054 25.43 0 3.303 1.907 5.05 4.371 5.247 6.867.222-2.812-1.527-5.667-5.247-7.815-7.022-4.054-18.408-4.054-25.43 0-3.72 2.148-5.468 5.002-5.247 7.814.197-2.496 1.945-4.96 5.247-6.866"/><path fill="#F9BF30" d="M272.492 115.089l-1.394.398.396.158-1.361.785a7.68 7.68 0 0 0-3.45-.806 6.594 6.594 0 0 0-3.323.899c-.412.238-.746.48-1.003.728a2.129 2.129 0 0 0-.537.768 2.583 2.583 0 0 0-.177.737c-.017.226-.006.491.031.797l.161 1.269c.048.362.059.658.032.89-.026.231-.127.472-.301.721-.174.248-.439.476-.798.683-.643.37-1.212.412-1.71.124-.381-.219-.477-.492-.289-.819.188-.328.692-.735 1.517-1.224v-.952l-1.191.447-1.713-.727c-1.05.645-1.724 1.252-2.031 1.825l-.196-.22v.934h.005c.006.641.494 1.273 1.477 1.895l-.678.391-.92-.421v.952l.826.477 1.613-.931a7.048 7.048 0 0 0 3.263.651c1.163-.038 2.188-.314 3.077-.827a5.233 5.233 0 0 0 1.092-.81c.283-.285.485-.579.604-.883a3.35 3.35 0 0 0 .226-.871 4.696 4.696 0 0 0-.004-.925l-.137-1.228a6.581 6.581 0 0 1-.031-.537c-.001-.111.02-.266.06-.466.04-.198.133-.376.276-.53.145-.154.343-.304.595-.45.262-.151.566-.248.915-.292.347-.043.652.009.914.154.134.07.228.144.285.219a.268.268 0 0 1 .05.16l-1.418.295v.952l2.873 1.278c.235-.148.445-.286.629-.414.186-.129.378-.283.579-.463.2-.181.36-.354.479-.519a1.82 1.82 0 0 0 .274-.561c.028-.096.042-.191.047-.284l.003-.004v-.014-.988l-.366.077c-.005-.007-.007-.013-.013-.019a3.37 3.37 0 0 0-.767-.656l1.508-.871v-.952z"/><path fill="#FDD762" d="M255.039 124.369l1.598-.922c-1.092-.692-1.58-1.395-1.465-2.11.115-.716.852-1.489 2.211-2.324l2.904 1.232c-.824.489-1.329.896-1.517 1.224-.188.327-.091.6.289.819.498.289 1.067.247 1.709-.124.359-.207.624-.435.799-.684.174-.248.274-.488.301-.72a3.837 3.837 0 0 0-.032-.89l-.161-1.269a4.247 4.247 0 0 1-.032-.797c.017-.226.076-.471.178-.737.102-.265.28-.522.537-.768.257-.248.591-.49 1.003-.728a6.594 6.594 0 0 1 3.323-.899 7.677 7.677 0 0 1 3.45.806l1.517-.875.842.486-1.508.871c.325.213.581.431.767.656.184.223.302.433.35.628.048.194.041.396-.021.604a1.853 1.853 0 0 1-.273.561c-.121.165-.28.338-.48.519-.201.18-.394.335-.579.463-.184.128-.395.266-.629.415l-2.873-1.279c.219-.133.397-.244.538-.334a7.35 7.35 0 0 0 .425-.296c.144-.108.249-.203.313-.283a.778.778 0 0 0 .136-.25.26.26 0 0 0-.044-.244.87.87 0 0 0-.285-.22c-.262-.144-.567-.196-.914-.153a2.433 2.433 0 0 0-.915.292c-.252.146-.45.296-.595.45a1.078 1.078 0 0 0-.276.53c-.04.2-.061.355-.06.466-.001.111.01.29.031.537l.137 1.228c.031.34.032.648.004.925a3.306 3.306 0 0 1-.225.871c-.12.304-.322.598-.605.882a5.173 5.173 0 0 1-1.092.811c-.888.513-1.914.789-3.077.827a7.042 7.042 0 0 1-3.264-.651l-1.612.931-.828-.477z"/><path fill="#F7B93C" d="M288.981 114.242h-1.031c-1.157-2.271-3.285-4.413-6.389-6.205-9.893-5.712-25.932-5.712-35.824-.001-3.104 1.792-5.234 3.935-6.39 6.206h-1.03v4.137c.001 3.742 2.474 7.486 7.42 10.341 9.893 5.712 25.932 5.712 35.825.001 4.946-2.856 7.419-6.6 7.419-10.342v-4.137z"/><path fill="#FCC956" d="M258.155 104.104c-4.551.581-8.879 1.889-12.418 3.933-3.104 1.792-5.233 3.934-6.39 6.205h-1.03v4.137c.001 3.743 2.474 7.486 7.42 10.341 3.54 2.044 7.868 3.352 12.418 3.933v-28.549z"/><path fill="#D1A646" d="M281.63 128.679c4.899-2.851 7.351-6.576 7.351-10.3v-4.137h-1.031c-.985-1.937-2.685-3.776-5.085-5.387h-1.234v19.824z"/><defs><path id="W" d="M239.028 104.977h48.649v28.017h-48.649z"/></defs><clipPath id="X"><use xlink:href="#W" overflow="visible"/></clipPath><path clip-path="url(#X)" fill="#D1A646" d="M287.677 113.76c-.311-.54-.677-1.07-1.099-1.59v12.431c.423-.521.787-1.052 1.099-1.592v-9.249zM245.737 108.036a19.92 19.92 0 0 0-3.539 2.57v15.549c.346.316.709.628 1.1.931v-16.853h2.071v18.262c.123.075.241.151.368.225.239.137.484.269.73.4v-18.887h2.071v19.883c.36.155.727.305 1.099.448v-20.331h2.071v21.045c.362.112.729.218 1.099.32v-21.365h2.071v21.865c.364.078.73.15 1.099.217v-22.082h2.072v22.407c.364.047.73.09 1.098.128v-22.535h2.071v22.703c.365.02.732.035 1.099.046v-22.749h2.071v22.761c.367-.007.733-.018 1.099-.033v-22.728h2.071v22.594c.367-.034.734-.07 1.099-.113v-22.481h2.071v22.189c.369-.062.734-.129 1.099-.201v-21.988h2.071v21.52c.37-.094.736-.194 1.1-.299v-21.221h2.07v20.549c.372-.135.738-.275 1.1-.421v-20.128h2.071v19.193c.373-.187.74-.381 1.099-.583v-18.61h2.071v17.296c.388-.279.751-.564 1.1-.854v-16.442h.183a20.622 20.622 0 0 0-3.13-2.197c-2.308-1.332-4.952-2.349-7.773-3.06H253.51c-2.822.711-5.466 1.728-7.773 3.06"/><path clip-path="url(#X)" fill="#E8A200" d="M240.127 112.959c-.292.422-.56.849-.78 1.283h-.319v7.582c.282.674.649 1.339 1.1 1.989v-10.854z"/><path fill="#FCC956" d="M281.562 124.583c-9.893 5.711-25.933 5.711-35.825 0-9.893-5.712-9.893-14.972 0-20.684s25.932-5.711 35.824 0c9.893 5.712 9.894 14.974.001 20.684"/><defs><path id="Y" d="M238.323 99.619h38.415v21.403h-38.415z"/></defs><clipPath id="Z"><use xlink:href="#Y" overflow="visible"/></clipPath><path clip-path="url(#Z)" fill="#FFF" d="M269.324 116.741c7.282-4.205 9.196-10.331 5.757-15.551-9.504-2.776-21.402-1.875-29.344 2.71-7.283 4.205-9.197 10.331-5.757 15.55 9.504 2.776 21.403 1.876 29.344-2.709"/><defs><path id="aa" d="M238.324 114.619h50.65v15.002h-50.65z"/></defs><clipPath id="ab"><use xlink:href="#aa" overflow="visible"/></clipPath><path clip-path="url(#ab)" fill="#FFF" d="M281.562 124.583c-9.893 5.711-25.933 5.711-35.825 0-4.779-2.76-7.243-6.349-7.403-9.965-.173 3.867 2.29 7.767 7.403 10.718 9.893 5.712 25.933 5.712 35.825.001 5.112-2.952 7.575-6.851 7.403-10.718-.16 3.616-2.624 7.205-7.403 9.964"/><path fill="#D1A646" d="M276.364 121.583c-7.021 4.054-18.407 4.054-25.43 0-7.021-4.055-7.022-10.628 0-14.682s18.407-4.054 25.43 0c7.021 4.055 7.021 10.627 0 14.682"/><path fill="#F9BF30" d="M250.934 107.849c7.021-4.054 18.407-4.054 25.43 0 3.303 1.907 5.05 4.371 5.247 6.867.222-2.812-1.527-5.667-5.247-7.815-7.022-4.054-18.408-4.054-25.43 0-3.72 2.148-5.468 5.002-5.247 7.814.197-2.496 1.945-4.96 5.247-6.866"/><path fill="#F9BF30" d="M272.492 109.339l-1.394.398.396.158-1.361.785a7.68 7.68 0 0 0-3.45-.806 6.594 6.594 0 0 0-3.323.899c-.412.238-.746.48-1.003.728a2.129 2.129 0 0 0-.537.768 2.583 2.583 0 0 0-.177.737c-.017.226-.006.491.031.797l.161 1.269c.048.362.059.658.032.89-.026.231-.127.472-.301.721-.174.248-.439.476-.798.683-.643.37-1.212.412-1.71.124-.381-.219-.477-.492-.289-.819.188-.328.692-.735 1.517-1.224v-.952l-1.191.447-1.713-.727c-1.05.645-1.724 1.252-2.031 1.825l-.196-.22v.934h.005c.006.641.494 1.273 1.477 1.895l-.678.391-.92-.421v.952l.826.477 1.613-.931a7.048 7.048 0 0 0 3.263.651c1.163-.038 2.188-.314 3.077-.827a5.233 5.233 0 0 0 1.092-.81c.283-.285.485-.579.604-.883a3.35 3.35 0 0 0 .226-.871 4.696 4.696 0 0 0-.004-.925l-.137-1.228a6.581 6.581 0 0 1-.031-.537c-.001-.111.02-.266.06-.466.04-.198.133-.376.276-.53.145-.154.343-.304.595-.45.262-.151.566-.248.915-.292.347-.043.652.009.914.154.134.07.228.144.285.219a.268.268 0 0 1 .05.16l-1.418.295v.952l2.873 1.278c.235-.148.445-.286.629-.414.186-.129.378-.283.579-.463.2-.181.36-.354.479-.519a1.82 1.82 0 0 0 .274-.561c.028-.096.042-.191.047-.284l.003-.004v-.014-.988l-.366.077c-.005-.007-.007-.013-.013-.019a3.37 3.37 0 0 0-.767-.656l1.508-.871v-.952z"/><path fill="#FDD762" d="M255.039 118.619l1.598-.922c-1.092-.692-1.58-1.395-1.465-2.11.115-.716.852-1.489 2.211-2.324l2.904 1.232c-.824.489-1.329.896-1.517 1.224-.188.327-.091.6.289.819.498.289 1.067.247 1.709-.124.359-.207.624-.435.799-.684.174-.248.274-.488.301-.72a3.837 3.837 0 0 0-.032-.89l-.161-1.269a4.247 4.247 0 0 1-.032-.797c.017-.226.076-.471.178-.737.102-.265.28-.522.537-.768.257-.248.591-.49 1.003-.728a6.594 6.594 0 0 1 3.323-.899 7.677 7.677 0 0 1 3.45.806l1.517-.875.842.486-1.508.871c.325.213.581.431.767.656.184.223.302.433.35.628.048.194.041.396-.021.604a1.853 1.853 0 0 1-.273.561c-.121.165-.28.338-.48.519-.201.18-.394.335-.579.463-.184.128-.395.266-.629.415l-2.873-1.279c.219-.133.397-.244.538-.334a7.35 7.35 0 0 0 .425-.296c.144-.108.249-.203.313-.283a.778.778 0 0 0 .136-.25.26.26 0 0 0-.044-.244.87.87 0 0 0-.285-.22c-.262-.144-.567-.196-.914-.153a2.433 2.433 0 0 0-.915.292c-.252.146-.45.296-.595.45a1.078 1.078 0 0 0-.276.53c-.04.2-.061.355-.06.466-.001.111.01.29.031.537l.137 1.228c.031.34.032.648.004.925a3.306 3.306 0 0 1-.225.871c-.12.304-.322.598-.605.882a5.173 5.173 0 0 1-1.092.811c-.888.513-1.914.789-3.077.827a7.042 7.042 0 0 1-3.264-.651l-1.612.931-.828-.477z"/><path fill="#F7B93C" d="M326.114 169.549h-1.031c-1.157-2.271-3.285-4.413-6.389-6.205-9.893-5.712-25.934-5.712-35.824 0-3.104 1.792-5.234 3.934-6.39 6.205h-1.03v4.137c0 3.743 2.474 7.485 7.42 10.341 9.893 5.712 25.932 5.712 35.825.001 4.946-2.855 7.419-6.599 7.419-10.342v-4.137z"/><path fill="#FCC956" d="M295.288 159.41c-4.551.581-8.879 1.89-12.418 3.934-3.104 1.792-5.233 3.934-6.39 6.205h-1.03v4.137c0 3.743 2.474 7.485 7.42 10.341 3.54 2.044 7.867 3.353 12.418 3.934V159.41z"/><path fill="#D1A646" d="M318.763 183.985c4.899-2.851 7.351-6.575 7.351-10.3v-4.137h-1.031c-.985-1.937-2.685-3.776-5.085-5.388h-1.234v19.825z"/><defs><path id="ac" d="M276.161 160.283h48.649v28.018h-48.649z"/></defs><clipPath id="ad"><use xlink:href="#ac" overflow="visible"/></clipPath><path clip-path="url(#ad)" fill="#D1A646" d="M324.81 169.067c-.311-.54-.677-1.07-1.099-1.591v12.432c.423-.521.787-1.053 1.099-1.593v-9.248zM282.87 163.344a19.917 19.917 0 0 0-3.539 2.569v15.549c.345.316.708.628 1.1.932V165.54h2.07v18.263c.124.074.242.15.369.224.239.139.484.27.73.401V165.54h2.071v19.883c.36.155.727.306 1.099.448V165.54h2.071v21.046c.362.111.729.218 1.099.319V165.54h2.071v21.865c.363.077.729.15 1.099.217V165.54h2.072v22.406c.364.048.73.091 1.098.129V165.54h2.071v22.703c.365.021.732.035 1.099.046V165.54h2.071v22.761c.366-.006.732-.018 1.099-.032V165.54h2.071v22.594c.367-.033.733-.069 1.099-.112V165.54h2.071v22.189c.368-.062.734-.129 1.099-.201V165.54h2.071v21.521c.37-.095.736-.194 1.099-.3V165.54h2.071v20.549c.372-.134.738-.274 1.1-.421V165.54h2.07v19.193c.374-.188.741-.381 1.1-.583v-18.61h2.071v17.296c.388-.278.751-.563 1.1-.854V165.54h.183a20.62 20.62 0 0 0-3.13-2.196c-2.308-1.332-4.952-2.35-7.773-3.061h-20.279c-2.822.711-5.467 1.729-7.773 3.061"/><path clip-path="url(#ad)" fill="#E8A200" d="M277.259 168.266c-.291.423-.559.85-.779 1.283h-.319v7.582c.282.675.649 1.339 1.099 1.988v-10.853z"/><path fill="#FCC956" d="M318.695 179.891c-9.893 5.711-25.933 5.711-35.825 0-9.893-5.712-9.893-14.973-.001-20.684 9.893-5.713 25.933-5.713 35.825 0 9.892 5.712 9.893 14.972.001 20.684"/><defs><path id="ae" d="M275.455 154.926h38.415v21.402h-38.415z"/></defs><clipPath id="af"><use xlink:href="#ae" overflow="visible"/></clipPath><path clip-path="url(#af)" fill="#FFF" d="M306.457 172.048c7.282-4.205 9.196-10.331 5.757-15.551-9.504-2.775-21.403-1.875-29.344 2.71-7.283 4.204-9.197 10.331-5.757 15.551 9.504 2.775 21.402 1.875 29.344-2.71"/><defs><path id="ag" d="M275.457 169.926h50.649v15.003h-50.649z"/></defs><clipPath id="ah"><use xlink:href="#ag" overflow="visible"/></clipPath><path clip-path="url(#ah)" fill="#FFF" d="M318.695 179.891c-9.893 5.712-25.933 5.711-35.825-.001-4.779-2.76-7.243-6.348-7.403-9.965-.173 3.868 2.29 7.768 7.403 10.72 9.893 5.711 25.933 5.711 35.825 0 5.111-2.951 7.575-6.851 7.403-10.718-.161 3.615-2.624 7.204-7.403 9.964"/><path fill="#D1A646" d="M313.497 176.89c-7.021 4.054-18.407 4.054-25.43 0-7.021-4.055-7.022-10.628 0-14.682 7.022-4.055 18.407-4.055 25.43 0 7.02 4.054 7.021 10.627 0 14.682"/><path fill="#F9BF30" d="M288.067 163.155c7.021-4.054 18.407-4.054 25.43.001 3.301 1.906 5.05 4.37 5.247 6.867.222-2.813-1.527-5.668-5.247-7.815-7.022-4.055-18.408-4.055-25.43 0-3.72 2.147-5.468 5.002-5.247 7.814.196-2.497 1.945-4.959 5.247-6.867"/><path fill="#F9BF30" d="M309.625 164.646l-1.394.398.396.157-1.361.786a7.681 7.681 0 0 0-3.45-.807 6.616 6.616 0 0 0-3.323.898c-.412.238-.746.48-1.003.728s-.436.503-.537.769-.161.512-.177.737c-.017.226-.005.491.031.797l.161 1.27c.048.361.059.657.032.89-.026.231-.128.472-.302.721-.173.248-.438.476-.798.683-.642.371-1.212.413-1.709.125-.381-.219-.477-.492-.289-.819.188-.328.692-.735 1.517-1.224v-.952l-1.19.448-1.714-.729c-1.05.646-1.724 1.252-2.031 1.825l-.196-.22v.934h.004c.006.641.495 1.273 1.479 1.896l-.679.391-.92-.422v.953l.826.477 1.613-.931a7.034 7.034 0 0 0 3.263.65c1.163-.038 2.189-.313 3.077-.827a5.173 5.173 0 0 0 1.092-.811 2.63 2.63 0 0 0 .605-.883c.12-.304.195-.594.225-.871a4.685 4.685 0 0 0-.004-.924l-.137-1.228a7.242 7.242 0 0 1-.032-.538c0-.11.021-.267.061-.465.04-.199.132-.377.276-.531s.343-.304.594-.449c.263-.151.567-.248.915-.292.348-.043.652.008.915.153a.842.842 0 0 1 .284.22c.038.051.05.104.051.159l-1.418.296v.951l2.873 1.279c.234-.147.445-.287.629-.415.186-.128.378-.283.579-.464.2-.18.36-.353.48-.519a1.83 1.83 0 0 0 .273-.561 1.23 1.23 0 0 0 .047-.284l.003-.004v-1.002l-.365.076c-.006-.006-.008-.012-.014-.018a3.37 3.37 0 0 0-.767-.656l1.508-.871v-.95z"/><path fill="#FDD762" d="M292.171 173.926l1.598-.922c-1.092-.691-1.58-1.395-1.465-2.11.114-.715.852-1.488 2.211-2.322l2.904 1.231c-.824.488-1.329.896-1.517 1.224-.188.327-.091.601.289.819.497.288 1.067.246 1.708-.125.36-.207.625-.435.799-.683.174-.249.275-.489.302-.721a3.837 3.837 0 0 0-.032-.89l-.161-1.27a4.24 4.24 0 0 1-.032-.796c.017-.227.076-.473.178-.738s.28-.521.537-.769.591-.489 1.003-.728a6.603 6.603 0 0 1 3.323-.898 7.678 7.678 0 0 1 3.45.807l1.517-.876.842.486-1.508.871c.325.213.581.431.767.655.184.224.301.434.35.628.048.194.04.396-.021.604a1.853 1.853 0 0 1-.273.561c-.121.165-.28.339-.48.519a5.705 5.705 0 0 1-.579.464 21.78 21.78 0 0 1-.629.416l-2.873-1.28c.219-.133.397-.243.537-.334.14-.089.281-.188.426-.296.144-.108.249-.202.313-.283.064-.08.11-.163.137-.25s.012-.167-.045-.243a.878.878 0 0 0-.284-.22c-.263-.146-.567-.196-.915-.153s-.652.142-.915.292c-.251.146-.449.295-.594.449s-.236.332-.276.531c-.04.198-.061.354-.061.465 0 .112.011.291.032.537l.137 1.229c.031.34.032.647.004.924a3.287 3.287 0 0 1-.225.871c-.12.305-.322.599-.605.884a5.241 5.241 0 0 1-1.092.81c-.888.513-1.914.789-3.077.827a7.041 7.041 0 0 1-3.264-.65l-1.612.932-.829-.479z"/><path fill="#F7B93C" d="M326.114 163.993h-1.031c-1.157-2.271-3.285-4.412-6.389-6.204-9.893-5.712-25.934-5.712-35.824-.001-3.104 1.792-5.234 3.934-6.39 6.205h-1.03v4.137c0 3.743 2.474 7.486 7.42 10.342 9.893 5.712 25.932 5.712 35.825 0 4.946-2.855 7.419-6.599 7.419-10.342v-4.137z"/><path fill="#FCC956" d="M295.288 153.855c-4.551.581-8.879 1.89-12.418 3.933-3.104 1.792-5.233 3.934-6.39 6.205h-1.03v4.137c0 3.743 2.474 7.486 7.42 10.342 3.54 2.044 7.867 3.353 12.418 3.934v-28.551z"/><path fill="#D1A646" d="M318.763 178.431c4.899-2.851 7.351-6.575 7.351-10.301v-4.138h-1.031c-.985-1.935-2.685-3.774-5.085-5.386h-1.234v19.825z"/><defs><path id="ai" d="M276.161 154.729h48.649v28.017h-48.649z"/></defs><clipPath id="aj"><use xlink:href="#ai" overflow="visible"/></clipPath><path clip-path="url(#aj)" fill="#D1A646" d="M324.81 163.512a12.21 12.21 0 0 0-1.099-1.59v12.432c.423-.521.787-1.053 1.099-1.593v-9.249zM282.87 157.788a19.92 19.92 0 0 0-3.539 2.57v15.549c.345.317.708.628 1.1.932v-16.854h2.07v18.263c.124.074.242.15.369.224.239.138.484.27.73.4v-18.887h2.071v19.883c.36.155.727.305 1.099.448v-20.331h2.071v21.045c.362.112.729.219 1.099.32v-21.365h2.071v21.865c.363.077.729.149 1.099.217v-22.082h2.072v22.407c.364.047.73.09 1.098.128v-22.535h2.071v22.703c.365.021.732.034 1.099.046v-22.749h2.071v22.76c.366-.006.732-.017 1.099-.032v-22.728h2.071v22.594c.367-.033.733-.07 1.099-.112v-22.481h2.071v22.188c.368-.062.734-.129 1.099-.199v-21.989h2.071v21.52c.37-.094.736-.194 1.099-.299v-21.221h2.071v20.549c.372-.135.738-.274 1.1-.421v-20.128h2.07v19.193c.374-.188.741-.381 1.1-.583v-18.61h2.071v17.296a19.36 19.36 0 0 0 1.1-.854v-16.441h.183a20.549 20.549 0 0 0-3.13-2.196c-2.308-1.333-4.952-2.351-7.773-3.061h-20.279c-2.822.708-5.467 1.726-7.773 3.058"/><path clip-path="url(#aj)" fill="#E8A200" d="M277.259 162.711c-.291.423-.559.85-.779 1.282h-.319v7.583c.282.674.649 1.338 1.099 1.988v-10.853z"/><path fill="#FCC956" d="M318.695 174.335c-9.893 5.712-25.933 5.712-35.825 0s-9.893-14.972-.001-20.684c9.893-5.712 25.933-5.712 35.825.001 9.892 5.711 9.893 14.972.001 20.683"/><defs><path id="ak" d="M275.455 149.37h38.415v21.403h-38.415z"/></defs><clipPath id="al"><use xlink:href="#ak" overflow="visible"/></clipPath><path clip-path="url(#al)" fill="#FFF" d="M306.457 166.493c7.282-4.205 9.196-10.332 5.757-15.551-9.504-2.776-21.403-1.875-29.344 2.709-7.283 4.205-9.197 10.332-5.757 15.551 9.504 2.777 21.402 1.876 29.344-2.709"/><defs><path id="am" d="M275.457 164.37h50.649v15.002h-50.649z"/></defs><clipPath id="an"><use xlink:href="#am" overflow="visible"/></clipPath><path clip-path="url(#an)" fill="#FFF" d="M318.695 174.336c-9.893 5.711-25.933 5.711-35.825-.001-4.779-2.76-7.243-6.349-7.403-9.965-.173 3.868 2.29 7.768 7.403 10.719 9.893 5.712 25.933 5.712 35.825.001 5.111-2.952 7.575-6.852 7.403-10.719-.161 3.616-2.624 7.204-7.403 9.965"/><path fill="#D1A646" d="M313.497 171.335c-7.021 4.054-18.407 4.054-25.43-.001-7.021-4.054-7.022-10.627 0-14.682 7.022-4.054 18.407-4.054 25.43 0 7.02 4.055 7.021 10.628 0 14.683"/><path fill="#F9BF30" d="M288.067 157.601c7.021-4.055 18.407-4.054 25.43 0 3.301 1.907 5.05 4.371 5.247 6.867.222-2.813-1.527-5.667-5.247-7.815-7.022-4.054-18.408-4.054-25.43 0-3.72 2.147-5.468 5.002-5.247 7.814.196-2.496 1.945-4.96 5.247-6.866"/><path fill="#F9BF30" d="M309.625 159.091l-1.394.398.396.157-1.361.786a7.681 7.681 0 0 0-3.45-.807 6.617 6.617 0 0 0-3.323.899c-.412.237-.746.48-1.003.728-.257.246-.436.503-.537.769s-.161.512-.177.736c-.017.227-.005.492.031.798l.161 1.269c.048.362.059.658.032.89-.026.232-.128.473-.302.721-.173.249-.438.477-.798.684-.642.371-1.212.412-1.709.125-.381-.22-.477-.492-.289-.82.188-.327.692-.734 1.517-1.223v-.953l-1.19.448-1.714-.728c-1.05.645-1.724 1.252-2.031 1.824l-.196-.22v.934l.004.001c.006.641.495 1.272 1.479 1.895l-.679.391-.92-.421v.952l.826.478 1.613-.932a7.035 7.035 0 0 0 3.263.651c1.163-.039 2.189-.314 3.077-.827a5.173 5.173 0 0 0 1.092-.811c.283-.284.485-.578.605-.883s.195-.595.225-.871.028-.585-.004-.924l-.137-1.229c-.021-.247-.032-.426-.032-.537s.021-.267.061-.466.132-.376.276-.53.343-.304.594-.449c.263-.151.567-.249.915-.292s.652.008.915.152a.83.83 0 0 1 .284.221.26.26 0 0 1 .051.159l-1.418.295v.952l2.873 1.278c.234-.147.445-.286.629-.414.186-.129.378-.283.579-.464.2-.181.36-.354.48-.519s.211-.353.273-.561c.028-.097.042-.19.047-.284l.003-.004v-1.001l-.365.076c-.006-.007-.008-.013-.014-.019a3.368 3.368 0 0 0-.767-.655l1.508-.871v-.952z"/><path fill="#FDD762" d="M292.171 168.371l1.598-.922c-1.092-.692-1.58-1.396-1.465-2.11.114-.715.852-1.488 2.211-2.322l2.904 1.231c-.824.488-1.329.896-1.517 1.223-.188.328-.091.601.289.82.497.287 1.067.245 1.708-.125.36-.207.625-.435.799-.684.174-.248.275-.488.302-.721a3.84 3.84 0 0 0-.032-.89l-.161-1.269a4.257 4.257 0 0 1-.032-.798c.017-.225.076-.471.178-.736s.28-.522.537-.769.591-.49 1.003-.728a6.594 6.594 0 0 1 3.323-.899 7.678 7.678 0 0 1 3.45.807l1.517-.875.842.486-1.508.87c.325.214.581.432.767.656.184.224.301.433.35.627.048.195.04.397-.021.605a1.853 1.853 0 0 1-.273.561c-.121.165-.28.338-.48.519a5.847 5.847 0 0 1-.579.464c-.184.128-.396.266-.629.415l-2.873-1.279c.219-.133.397-.244.537-.334s.281-.188.426-.296c.144-.108.249-.203.313-.283a.773.773 0 0 0 .137-.25.259.259 0 0 0-.045-.243.866.866 0 0 0-.284-.221c-.263-.145-.567-.195-.915-.152s-.652.142-.915.291c-.251.146-.449.296-.594.45s-.236.331-.276.53-.061.354-.061.466c0 .112.011.29.032.537l.137 1.229c.031.339.032.647.004.924-.029.276-.104.566-.225.871s-.322.599-.605.883a5.208 5.208 0 0 1-1.092.811c-.888.513-1.914.788-3.077.827a7.042 7.042 0 0 1-3.264-.651l-1.612.933-.829-.479z"/><path fill="#F7B93C" d="M326.114 157.993h-1.031c-1.157-2.271-3.285-4.412-6.389-6.204-9.893-5.712-25.934-5.712-35.824-.001-3.104 1.792-5.234 3.934-6.39 6.205h-1.03v4.137c0 3.743 2.474 7.486 7.42 10.342 9.893 5.712 25.932 5.712 35.825 0 4.946-2.855 7.419-6.599 7.419-10.342v-4.137z"/><path fill="#FCC956" d="M295.288 147.855c-4.551.581-8.879 1.89-12.418 3.933-3.104 1.792-5.233 3.934-6.39 6.205h-1.03v4.137c0 3.743 2.474 7.486 7.42 10.342 3.54 2.044 7.867 3.353 12.418 3.934v-28.551z"/><path fill="#D1A646" d="M318.763 172.431c4.899-2.851 7.351-6.575 7.351-10.301v-4.138h-1.031c-.985-1.935-2.685-3.774-5.085-5.386h-1.234v19.825z"/><g><defs><path id="ao" d="M276.161 148.729h48.649v28.017h-48.649z"/></defs><clipPath id="ap"><use xlink:href="#ao" overflow="visible"/></clipPath><path clip-path="url(#ap)" fill="#D1A646" d="M324.81 157.512a12.21 12.21 0 0 0-1.099-1.59v12.432c.423-.521.787-1.053 1.099-1.593v-9.249zM282.87 151.788a19.92 19.92 0 0 0-3.539 2.57v15.549c.345.317.708.628 1.1.932v-16.854h2.07v18.263c.124.074.242.15.369.224.239.138.484.27.73.4v-18.887h2.071v19.883c.36.155.727.305 1.099.448v-20.331h2.071v21.045c.362.112.729.219 1.099.32v-21.365h2.071v21.865c.363.077.729.149 1.099.217v-22.082h2.072v22.407c.364.047.73.09 1.098.128v-22.535h2.071v22.703c.365.021.732.034 1.099.046v-22.749h2.071v22.76c.366-.006.732-.017 1.099-.032v-22.728h2.071v22.594c.367-.033.733-.07 1.099-.112v-22.481h2.071v22.188c.368-.062.734-.129 1.099-.199v-21.989h2.071v21.52c.37-.094.736-.194 1.099-.299v-21.221h2.071v20.549c.372-.135.738-.274 1.1-.421v-20.128h2.07v19.193c.374-.188.741-.381 1.1-.583v-18.61h2.071v17.296a19.36 19.36 0 0 0 1.1-.854v-16.441h.183a20.549 20.549 0 0 0-3.13-2.196c-2.308-1.333-4.952-2.351-7.773-3.061h-20.279c-2.822.708-5.467 1.726-7.773 3.058"/><path clip-path="url(#ap)" fill="#E8A200" d="M277.259 156.711c-.291.423-.559.85-.779 1.282h-.319v7.583c.282.674.649 1.338 1.099 1.988v-10.853z"/></g><path fill="#FCC956" d="M318.695 168.335c-9.893 5.712-25.933 5.712-35.825 0s-9.893-14.972-.001-20.684c9.893-5.711 25.933-5.711 35.825.001 9.892 5.711 9.893 14.972.001 20.683"/><g><defs><path id="aq" d="M275.455 143.37h38.415v21.403h-38.415z"/></defs><clipPath id="ar"><use xlink:href="#aq" overflow="visible"/></clipPath><path clip-path="url(#ar)" fill="#FFF" d="M306.457 160.493c7.282-4.205 9.196-10.332 5.757-15.551-9.504-2.776-21.403-1.875-29.344 2.709-7.283 4.205-9.197 10.332-5.757 15.551 9.504 2.777 21.402 1.876 29.344-2.709"/></g><g><defs><path id="as" d="M275.457 158.37h50.649v15.002h-50.649z"/></defs><clipPath id="at"><use xlink:href="#as" overflow="visible"/></clipPath><path clip-path="url(#at)" fill="#FFF" d="M318.695 168.336c-9.893 5.711-25.933 5.711-35.825-.001-4.779-2.76-7.243-6.349-7.403-9.965-.173 3.868 2.29 7.768 7.403 10.719 9.893 5.712 25.933 5.712 35.825.001 5.111-2.952 7.575-6.852 7.403-10.719-.161 3.616-2.624 7.204-7.403 9.965"/></g><path fill="#D1A646" d="M313.497 165.335c-7.021 4.054-18.407 4.054-25.43-.001-7.021-4.054-7.022-10.627 0-14.682 7.022-4.054 18.407-4.054 25.43 0 7.02 4.055 7.021 10.628 0 14.683"/><path fill="#F9BF30" d="M288.067 151.601c7.021-4.055 18.407-4.054 25.43 0 3.301 1.907 5.05 4.371 5.247 6.867.222-2.813-1.527-5.667-5.247-7.815-7.022-4.054-18.408-4.054-25.43 0-3.72 2.147-5.468 5.002-5.247 7.814.196-2.496 1.945-4.96 5.247-6.866"/><path fill="#F9BF30" d="M309.625 153.091l-1.394.398.396.157-1.361.786a7.681 7.681 0 0 0-3.45-.807 6.617 6.617 0 0 0-3.323.899c-.412.237-.746.48-1.003.728-.257.246-.436.503-.537.769s-.161.512-.177.736c-.017.227-.005.492.031.798l.161 1.269c.048.362.059.658.032.89-.026.232-.128.473-.302.721-.173.249-.438.477-.798.684-.642.371-1.212.412-1.709.125-.381-.22-.477-.492-.289-.82.188-.327.692-.734 1.517-1.223v-.953l-1.19.448-1.714-.728c-1.05.645-1.724 1.252-2.031 1.824l-.196-.22v.934l.004.001c.006.641.495 1.272 1.479 1.895l-.679.391-.92-.421v.952l.826.478 1.613-.932a7.035 7.035 0 0 0 3.263.651c1.163-.039 2.189-.314 3.077-.827a5.173 5.173 0 0 0 1.092-.811c.283-.284.485-.578.605-.883s.195-.595.225-.871.028-.585-.004-.924l-.137-1.229c-.021-.247-.032-.426-.032-.537s.021-.267.061-.466.132-.376.276-.53.343-.304.594-.449c.263-.151.567-.249.915-.292s.652.008.915.152a.83.83 0 0 1 .284.221.26.26 0 0 1 .051.159l-1.418.295v.952l2.873 1.278c.234-.147.445-.286.629-.414.186-.129.378-.283.579-.464.2-.181.36-.354.48-.519s.211-.353.273-.561c.028-.097.042-.19.047-.284l.003-.004v-1.001l-.365.076c-.006-.007-.008-.013-.014-.019a3.368 3.368 0 0 0-.767-.655l1.508-.871v-.952z"/><path fill="#FDD762" d="M292.171 162.371l1.598-.922c-1.092-.692-1.58-1.396-1.465-2.11.114-.715.852-1.488 2.211-2.322l2.904 1.231c-.824.488-1.329.896-1.517 1.223-.188.328-.091.601.289.82.497.287 1.067.245 1.708-.125.36-.207.625-.435.799-.684.174-.248.275-.488.302-.721a3.84 3.84 0 0 0-.032-.89l-.161-1.269a4.257 4.257 0 0 1-.032-.798c.017-.225.076-.471.178-.736s.28-.522.537-.769.591-.49 1.003-.728a6.594 6.594 0 0 1 3.323-.899 7.678 7.678 0 0 1 3.45.807l1.517-.875.842.486-1.508.87c.325.214.581.432.767.656.184.224.301.433.35.627.048.195.04.397-.021.605a1.853 1.853 0 0 1-.273.561c-.121.165-.28.338-.48.519a5.847 5.847 0 0 1-.579.464c-.184.128-.396.266-.629.415l-2.873-1.279c.219-.133.397-.244.537-.334s.281-.188.426-.296c.144-.108.249-.203.313-.283a.773.773 0 0 0 .137-.25.259.259 0 0 0-.045-.243.866.866 0 0 0-.284-.221c-.263-.145-.567-.195-.915-.152s-.652.142-.915.291c-.251.146-.449.296-.594.45s-.236.331-.276.53-.061.354-.061.466c0 .112.011.29.032.537l.137 1.229c.031.339.032.647.004.924-.029.276-.104.566-.225.871s-.322.599-.605.883a5.208 5.208 0 0 1-1.092.811c-.888.513-1.914.788-3.077.827a7.042 7.042 0 0 1-3.264-.651l-1.612.933-.829-.479z"/><g><defs><path id="au" d="M121.959 175.668H266.03v83.48H121.959z"/></defs><clipPath id="av"><use xlink:href="#au" overflow="visible"/></clipPath><path clip-path="url(#av)" fill="#0087BC" d="M263.981 209.27l-55.965-32.408c-3.04-1.761-8.355-1.548-11.87.476l-71.274 41.358c-3.516 2.023-3.902 5.091-.861 6.852l55.965 32.408c3.04 1.761 8.355 1.548 11.871-.476l71.273-41.358c3.515-2.024 3.901-5.092.861-6.852"/></g><path fill="#009ECE" d="M266.452 185.207v8.375a4.39 4.39 0 0 1-.514 1.423l-7.524 13.01c-1.217 2.111-3.901 4.796-6.014 6.013l-63.89 36.904c-2.113 1.218-5.517 1.218-7.627 0l-57.906-33.441c-1.057-.601-1.586-1.407-1.586-2.199v-6.879c0-.792.529-1.585 1.586-2.2l63.891-36.904c2.111-1.217 4.796-3.901 6.014-5.999l7.51-13.024c1.217-2.097 3.916-2.83 6.014-1.613l57.92 33.441a4.343 4.343 0 0 1 2.126 3.093"/><path fill="#0087BC" d="M184.721 170.547l-61.744 35.665c-1.057.615-1.586 1.408-1.586 2.2v6.879c0 .792.529 1.599 1.586 2.199l57.906 33.441c1.062.612 2.451.916 3.838.911v-81.295z"/><path fill="#66DBFF" d="M266.452 186.703a4.39 4.39 0 0 1-.514 1.423l-.836 1.451-6.688 11.559c-1.217 2.111-3.901 4.796-6.014 6.013l-63.89 36.904c-2.113 1.218-5.517 1.218-7.627 0l-55.766-32.194-2.141-1.247c-1.057-.615-1.586-1.407-1.586-2.199s.529-1.585 1.586-2.2l63.891-36.905c2.111-1.216 4.796-3.9 6.014-5.998l7.51-13.024c1.217-2.097 3.916-2.83 6.014-1.613l57.92 33.441a4.34 4.34 0 0 1 2.127 3.095 4.26 4.26 0 0 1 0 1.494"/><path fill="#007396" d="M199.542 164.764l4.338-7.179a3.006 3.006 0 0 1 4.058-1.045l48.539 28.025a2.862 2.862 0 0 1 1.022 3.977l-4.337 7.18a3.005 3.005 0 0 1-4.057 1.044l-48.541-28.025a2.865 2.865 0 0 1-1.022-3.977"/><path fill="#7ACFD3" d="M186.042 179.612l6.076 3.508c.667.385 1.746.385 2.414 0l3.246-1.874c.414-.238.539-.567.439-.876a.562.562 0 0 0 0-.358.56.56 0 0 0 0-.357.562.562 0 0 0 0-.358.562.562 0 0 0 0-.358.562.562 0 0 0 0-.358c.1-.309-.025-.637-.439-.876l-6.076-3.508c-.667-.385-1.747-.385-2.413 0l-3.247 1.874c-.414.239-.54.567-.439.876a.562.562 0 0 0 0 .358.56.56 0 0 0 0 .357.562.562 0 0 0 0 .358.562.562 0 0 0 0 .358.562.562 0 0 0 0 .358c-.102.309.024.637.439.876"/><path fill="#51C4C4" d="M186.042 176.069c-.414.239-.54.567-.439.876a.562.562 0 0 0 0 .358.56.56 0 0 0 0 .357.562.562 0 0 0 0 .358.562.562 0 0 0 0 .358.562.562 0 0 0 0 .358c-.101.309.025.637.439.876l6.076 3.508c.334.192.77.289 1.207.289v-5.528l-5.489-2.847-1.794 1.037z"/><path fill="#CFF1F9" d="M191.702 173.485l6.076 3.509c.666.385.666 1.008 0 1.393l-3.246 1.875c-.666.385-1.748.385-2.414 0l-6.076-3.509c-.666-.385-.666-1.009 0-1.394l3.246-1.874c.666-.384 1.748-.384 2.414 0"/><path fill="#7ACFD3" d="M200.192 187.781l6.075 3.509c.667.385 1.747.385 2.414 0l3.246-1.875c.414-.237.54-.566.44-.875a.562.562 0 0 0 0-.358.562.562 0 0 0 0-.358.562.562 0 0 0 0-.358.56.56 0 0 0 0-.357.562.562 0 0 0 0-.358c.1-.31-.026-.638-.44-.876l-6.076-3.509c-.665-.385-1.747-.385-2.413 0l-3.246 1.875c-.414.238-.541.566-.439.875a.549.549 0 0 0 0 .358.549.549 0 0 0 0 .358.549.549 0 0 0 0 .358.549.549 0 0 0 0 .358.546.546 0 0 0 0 .357c-.102.309.025.638.439.876"/><path fill="#51C4C4" d="M200.192 184.239c-.414.238-.541.566-.439.875a.549.549 0 0 0 0 .358.549.549 0 0 0 0 .358.549.549 0 0 0 0 .358.549.549 0 0 0 0 .358.546.546 0 0 0 0 .357c-.102.309.025.638.439.876l6.075 3.509c.334.192.771.288 1.207.288v-5.528l-5.489-2.847-1.793 1.038z"/><path fill="#CFF1F9" d="M205.851 181.654l6.077 3.509c.666.386.666 1.009 0 1.394l-3.247 1.874c-.666.385-1.747.385-2.413 0l-6.077-3.507c-.666-.387-.666-1.01 0-1.395l3.247-1.875c.666-.384 1.747-.384 2.413 0"/><path fill="#7ACFD3" d="M214.341 195.95l6.076 3.509c.667.385 1.747.385 2.414 0l3.245-1.874c.414-.238.541-.567.441-.876a.576.576 0 0 0 0-.358.576.576 0 0 0 0-.358.573.573 0 0 0 0-.357.576.576 0 0 0 0-.358.576.576 0 0 0 0-.358c.1-.309-.027-.637-.441-.876l-6.075-3.508c-.667-.385-1.747-.385-2.413 0l-3.247 1.874c-.414.239-.54.567-.438.876a.533.533 0 0 0 0 .357.536.536 0 0 0 0 .358.536.536 0 0 0 0 .358.536.536 0 0 0 0 .358.536.536 0 0 0 0 .358c-.102.309.024.637.438.875"/><path fill="#51C4C4" d="M214.341 192.408c-.414.239-.54.567-.438.876a.533.533 0 0 0 0 .357.536.536 0 0 0 0 .358.536.536 0 0 0 0 .358.536.536 0 0 0 0 .358.536.536 0 0 0 0 .358c-.102.309.024.637.438.875l6.076 3.509c.334.192.771.289 1.207.289v-5.529l-5.489-2.847-1.794 1.038z"/><path fill="#CFF1F9" d="M220.001 189.824l6.076 3.508c.667.385.667 1.009 0 1.394l-3.246 1.875c-.667.385-1.747.385-2.414-.001l-6.076-3.508c-.667-.385-.667-1.009 0-1.394l3.246-1.874c.667-.385 1.747-.385 2.414 0"/><path fill="#7ACFD3" d="M228.491 204.12l6.076 3.509c.667.385 1.748.385 2.414 0l3.247-1.875c.413-.237.539-.566.439-.876a.56.56 0 0 0 0-.357.562.562 0 0 0 0-.358.562.562 0 0 0 0-.358.562.562 0 0 0 0-.358.562.562 0 0 0 0-.358c.1-.309-.026-.637-.439-.875l-6.077-3.509c-.666-.385-1.746-.385-2.412 0l-3.248 1.874c-.414.239-.539.567-.438.876a.549.549 0 0 0 0 .358.549.549 0 0 0 0 .358.546.546 0 0 0 0 .357.549.549 0 0 0 0 .358.549.549 0 0 0 0 .358c-.101.309.024.637.438.876"/><path fill="#51C4C4" d="M228.491 200.577c-.414.239-.539.567-.438.876a.549.549 0 0 0 0 .358.549.549 0 0 0 0 .358.546.546 0 0 0 0 .357.549.549 0 0 0 0 .358.549.549 0 0 0 0 .358c-.101.309.024.637.438.876l6.076 3.509c.334.192.771.288 1.208.288v-5.528l-5.489-2.847-1.795 1.037z"/><path fill="#CFF1F9" d="M234.151 197.993l6.076 3.509c.667.385.667 1.009 0 1.394l-3.246 1.874c-.666.385-1.747.385-2.413 0l-6.077-3.509c-.666-.385-.666-1.009 0-1.394l3.247-1.874c.666-.385 1.747-.385 2.413 0"/><path fill="#7ACFD3" d="M171.892 187.781l6.076 3.509c.667.385 1.747.385 2.413 0l6.076-3.509c.414-.238.539-.566.439-.876a.56.56 0 0 0 0-.357.562.562 0 0 0 0-.358.562.562 0 0 0 0-.358.562.562 0 0 0 0-.358.56.56 0 0 0 0-.357c.1-.31-.025-.638-.439-.876l-6.076-3.509c-.666-.385-1.747-.385-2.413 0l-6.076 3.509c-.414.238-.54.566-.44.875a.562.562 0 0 0 0 .358.562.562 0 0 0 0 .358.562.562 0 0 0 0 .358.56.56 0 0 0 0 .357.562.562 0 0 0 0 .358c-.1.309.026.638.44.876"/><path fill="#51C4C4" d="M178.766 185.043l-4.799-2.002-2.076 1.198c-.414.238-.539.566-.438.875a.562.562 0 0 0 0 .358.562.562 0 0 0 0 .358.56.56 0 0 0 0 .357.562.562 0 0 0 0 .358.562.562 0 0 0 0 .358c-.101.309.024.638.438.876l6.078 3.509c.227.131.506.2.797.242v-6.487z"/><path fill="#CFF1F9" d="M180.381 180.021l6.077 3.509c.666.385.666 1.009 0 1.394l-6.077 3.508c-.666.385-1.747.385-2.413 0l-6.076-3.508c-.667-.386-.667-1.009 0-1.394l6.076-3.509c.666-.385 1.746-.385 2.413 0"/><path fill="#7ACFD3" d="M186.042 195.95l6.076 3.509c.668.385 1.747.385 2.414 0l6.076-3.508c.413-.239.539-.567.439-.876a.562.562 0 0 0 0-.358.562.562 0 0 0 0-.358.562.562 0 0 0 0-.358.56.56 0 0 0 0-.357.562.562 0 0 0 0-.358c.1-.309-.026-.637-.439-.876l-6.076-3.509c-.667-.385-1.748-.385-2.414 0l-6.076 3.509c-.414.239-.539.567-.438.876a.546.546 0 0 0 0 .357.549.549 0 0 0 0 .358.549.549 0 0 0 0 .358.549.549 0 0 0 0 .358.549.549 0 0 0 0 .358c-.102.309.023.637.438.875"/><path fill="#51C4C4" d="M192.916 193.212l-4.799-2.002-2.075 1.198c-.414.239-.539.567-.439.876a.56.56 0 0 0 0 .357.562.562 0 0 0 0 .358.562.562 0 0 0 0 .358.562.562 0 0 0 0 .358.562.562 0 0 0 0 .358c-.1.309.025.637.439.875l6.077 3.509c.228.131.506.201.797.243v-6.488z"/><path fill="#CFF1F9" d="M194.532 188.19l6.076 3.508c.666.385.666 1.009 0 1.394l-6.076 3.509c-.666.385-1.748.385-2.414-.001l-6.075-3.508c-.667-.385-.667-1.009 0-1.394l6.075-3.508c.666-.384 1.746-.384 2.414 0"/><path fill="#7ACFD3" d="M200.192 204.12l6.076 3.509c.667.385 1.746.385 2.412 0l6.078-3.509c.412-.238.539-.567.438-.876a.56.56 0 0 0 0-.357.562.562 0 0 0 0-.358.562.562 0 0 0 0-.358.562.562 0 0 0 0-.358.562.562 0 0 0 0-.358c.101-.309-.026-.637-.438-.875l-6.078-3.509c-.666-.385-1.746-.385-2.412 0l-6.076 3.508c-.414.239-.54.567-.439.876a.562.562 0 0 0 0 .358.562.562 0 0 0 0 .358.56.56 0 0 0 0 .357.562.562 0 0 0 0 .358.562.562 0 0 0 0 .358c-.101.309.025.637.439.876"/><path fill="#51C4C4" d="M207.065 201.382l-4.799-2.002-2.074 1.197c-.414.239-.539.567-.439.876a.562.562 0 0 0 0 .358.562.562 0 0 0 0 .358.562.562 0 0 0 0 .358.56.56 0 0 0 0 .357.562.562 0 0 0 0 .358c-.1.309.025.637.439.876l6.076 3.509c.228.131.506.2.797.242v-6.487z"/><path fill="#CFF1F9" d="M208.681 196.359l6.077 3.509c.666.385.666 1.008 0 1.394l-6.077 3.508c-.666.385-1.747.385-2.413 0l-6.076-3.509c-.667-.385-.667-1.009 0-1.394l6.076-3.508c.666-.384 1.746-.384 2.413 0"/><path fill="#7ACFD3" d="M214.342 212.289l6.076 3.509c.666.385 1.746.385 2.412 0l6.077-3.508c.413-.239.539-.567.438-.876a.562.562 0 0 0 0-.358.562.562 0 0 0 0-.358.562.562 0 0 0 0-.358.56.56 0 0 0 0-.357.562.562 0 0 0 0-.358c.101-.309-.025-.637-.438-.876l-6.077-3.509c-.666-.385-1.746-.385-2.412 0l-6.076 3.509c-.414.238-.541.566-.44.876a.56.56 0 0 0 0 .357.562.562 0 0 0 0 .358.562.562 0 0 0 0 .358.562.562 0 0 0 0 .358.562.562 0 0 0 0 .358c-.101.309.026.637.44.875"/><path fill="#51C4C4" d="M221.215 209.551l-4.799-2.002-2.075 1.198c-.414.239-.539.566-.438.876a.56.56 0 0 0 0 .357.562.562 0 0 0 0 .358.562.562 0 0 0 0 .358.562.562 0 0 0 0 .358.562.562 0 0 0 0 .358c-.101.309.024.637.438.875l6.077 3.509c.227.131.506.201.797.242v-6.487z"/><path fill="#CFF1F9" d="M222.831 204.528l6.078 3.509c.666.385.666 1.009 0 1.394l-6.078 3.508c-.666.385-1.746.385-2.412 0l-6.076-3.508c-.667-.385-.667-1.009 0-1.394l6.076-3.509c.665-.384 1.746-.384 2.412 0"/><path fill="#7ACFD3" d="M159.184 195.134l6.078 3.508c.666.385 1.746.385 2.412 0l6.076-3.508c.413-.238.539-.567.439-.876a.562.562 0 0 0 0-.358.56.56 0 0 0 0-.357.562.562 0 0 0 0-.358.562.562 0 0 0 0-.358.562.562 0 0 0 0-.358c.1-.309-.026-.637-.439-.876l-6.076-3.508c-.667-.385-1.746-.385-2.414 0l-6.076 3.508c-.414.239-.539.567-.438.876a.562.562 0 0 0 0 .358.56.56 0 0 0 0 .357.562.562 0 0 0 0 .358.562.562 0 0 0 0 .358.562.562 0 0 0 0 .358c-.101.308.024.637.438.876"/><path fill="#51C4C4" d="M166.058 192.395l-4.799-2.001-2.075 1.197c-.413.239-.539.567-.439.876a.562.562 0 0 0 0 .358.56.56 0 0 0 0 .357.562.562 0 0 0 0 .358.562.562 0 0 0 0 .358.562.562 0 0 0 0 .358c-.1.309.026.637.439.876l6.077 3.508c.227.132.506.201.797.243v-6.488z"/><path fill="#CFF1F9" d="M167.674 187.373l6.076 3.509c.667.385.667 1.008 0 1.393l-6.076 3.509c-.667.385-1.747.385-2.413 0l-6.077-3.509c-.666-.385-.666-1.009 0-1.394l6.076-3.508c.667-.385 1.747-.385 2.414 0"/><path fill="#7ACFD3" d="M173.334 203.303l6.076 3.509c.666.385 1.747.385 2.413 0l6.076-3.509c.414-.238.539-.566.44-.875a.562.562 0 0 0 0-.358.562.562 0 0 0 0-.358.562.562 0 0 0 0-.358.56.56 0 0 0 0-.357.562.562 0 0 0 0-.358c.1-.31-.026-.638-.44-.876l-6.076-3.509c-.666-.385-1.747-.385-2.413 0l-6.076 3.509c-.414.238-.539.566-.439.875a.562.562 0 0 0 0 .358.562.562 0 0 0 0 .358.562.562 0 0 0 0 .358.562.562 0 0 0 0 .358.56.56 0 0 0 0 .357c-.1.308.025.637.439.876"/><path fill="#51C4C4" d="M180.208 200.564l-4.799-2.002-2.074 1.198c-.414.238-.539.566-.439.875a.562.562 0 0 0 0 .358.562.562 0 0 0 0 .358.562.562 0 0 0 0 .358.562.562 0 0 0 0 .358.56.56 0 0 0 0 .357c-.1.309.025.638.439.876l6.076 3.509c.228.131.506.2.797.242v-6.487z"/><path fill="#CFF1F9" d="M181.825 195.542l6.076 3.509c.666.386.666 1.009 0 1.394l-6.076 3.508c-.668.385-1.748.385-2.414 0l-6.076-3.508c-.666-.385-.666-1.008 0-1.394l6.076-3.509c.666-.385 1.746-.385 2.414 0"/><path fill="#7ACFD3" d="M187.485 211.473l6.076 3.508c.666.385 1.747.385 2.413 0l6.076-3.508c.413-.239.539-.567.438-.876a.562.562 0 0 0 0-.358.562.562 0 0 0 0-.358.56.56 0 0 0 0-.357.562.562 0 0 0 0-.358.562.562 0 0 0 0-.358c.101-.309-.025-.637-.438-.876l-6.076-3.508c-.667-.385-1.747-.385-2.413 0l-6.076 3.508c-.414.239-.541.567-.439.876a.562.562 0 0 0 0 .358.56.56 0 0 0 0 .357.562.562 0 0 0 0 .358.562.562 0 0 0 0 .358.562.562 0 0 0 0 .358c-.102.308.025.636.439.876"/><path fill="#51C4C4" d="M194.358 208.733l-4.798-2.002-2.076 1.198c-.413.24-.539.567-.438.876a.562.562 0 0 0 0 .358.56.56 0 0 0 0 .357.562.562 0 0 0 0 .358.562.562 0 0 0 0 .358.562.562 0 0 0 0 .358c-.101.309.025.637.438.876l6.077 3.508c.227.131.506.201.797.243v-6.488z"/><path fill="#CFF1F9" d="M195.974 203.712l6.076 3.508c.667.385.667 1.009 0 1.394l-6.076 3.509c-.667.385-1.747.385-2.413 0l-6.077-3.509c-.665-.385-.665-1.009 0-1.394l6.076-3.508c.667-.385 1.747-.385 2.414 0"/><path fill="#7ACFD3" d="M201.634 219.642l6.077 3.509c.666.385 1.746.385 2.412 0l6.076-3.509c.414-.238.539-.567.439-.876a.56.56 0 0 0 0-.357.562.562 0 0 0 0-.358.562.562 0 0 0 0-.358.562.562 0 0 0 0-.358.562.562 0 0 0 0-.358c.1-.309-.025-.637-.439-.875l-6.076-3.509c-.666-.385-1.746-.385-2.413 0l-6.076 3.508c-.414.239-.54.567-.438.876a.562.562 0 0 0 0 .358.562.562 0 0 0 0 .358.56.56 0 0 0 0 .357.562.562 0 0 0 0 .358.562.562 0 0 0 0 .358c-.102.308.024.636.438.876"/><path fill="#51C4C4" d="M208.508 216.903l-4.799-2.002-2.076 1.197c-.412.239-.539.567-.438.876a.562.562 0 0 0 0 .358.562.562 0 0 0 0 .358.562.562 0 0 0 0 .358.56.56 0 0 0 0 .357.562.562 0 0 0 0 .358c-.101.309.026.637.438.876l6.078 3.509c.227.131.506.2.797.242v-6.487z"/><path fill="#CFF1F9" d="M210.124 211.881l6.076 3.509c.668.385.668 1.009 0 1.394l-6.076 3.508c-.666.385-1.746.385-2.412 0l-6.077-3.509c-.666-.385-.666-1.008 0-1.394l6.075-3.508c.667-.385 1.748-.385 2.414 0"/><path fill="#7ACFD3" d="M146.477 202.485l6.076 3.509c.668.385 1.748.385 2.413 0l6.077-3.508c.413-.239.539-.567.439-.876a.562.562 0 0 0 0-.358.562.562 0 0 0 0-.358.562.562 0 0 0 0-.358.56.56 0 0 0 0-.357.562.562 0 0 0 0-.358c.1-.309-.026-.637-.439-.876l-6.077-3.509c-.665-.385-1.747-.385-2.413 0l-6.076 3.509c-.414.238-.539.567-.439.876a.562.562 0 0 0 0 .358.56.56 0 0 0 0 .357.562.562 0 0 0 0 .358.562.562 0 0 0 0 .358.562.562 0 0 0 0 .358c-.1.309.025.637.439.875"/><path fill="#51C4C4" d="M153.35 199.747l-4.797-2.002-2.076 1.198c-.414.238-.539.567-.439.876a.562.562 0 0 0 0 .358.56.56 0 0 0 0 .357.56.56 0 0 0 0 .357.565.565 0 0 0 0 .359.562.562 0 0 0 0 .358c-.1.309.025.637.439.875l6.076 3.509c.228.131.508.201.797.243v-6.488z"/><path fill="#CFF1F9" d="M154.967 194.726l6.076 3.508c.666.385.666 1.009 0 1.394l-6.076 3.509c-.666.385-1.748.385-2.414 0l-6.076-3.509c-.666-.385-.666-1.009 0-1.394l6.076-3.508c.666-.386 1.746-.386 2.414 0"/><path fill="#7ACFD3" d="M160.627 210.655l6.076 3.509c.667.385 1.747.385 2.413 0l6.075-3.509c.414-.238.541-.567.44-.876a.562.562 0 0 0 0-.358.56.56 0 0 0 0-.357.562.562 0 0 0 0-.358.562.562 0 0 0 0-.358.562.562 0 0 0 0-.358c.101-.309-.026-.637-.44-.876l-6.075-3.508c-.666-.386-1.747-.386-2.413 0l-6.076 3.508c-.414.239-.54.567-.439.876a.562.562 0 0 0 0 .358.562.562 0 0 0 0 .358.56.56 0 0 0 0 .357.562.562 0 0 0 0 .358.562.562 0 0 0 0 .358c-.101.309.025.637.439.876"/><path fill="#51C4C4" d="M167.5 207.917l-4.799-2.002-2.074 1.197c-.414.239-.539.567-.439.876a.562.562 0 0 0 0 .358.562.562 0 0 0 0 .358.562.562 0 0 0 0 .358.56.56 0 0 0 0 .357.562.562 0 0 0 0 .358c-.1.309.025.637.439.876l6.076 3.509c.228.131.506.2.797.242v-6.487z"/><path fill="#CFF1F9" d="M169.117 202.895l6.077 3.509c.666.385.666 1.009 0 1.393l-6.077 3.509c-.666.385-1.747.385-2.413 0l-6.077-3.509c-.666-.385-.666-1.009 0-1.394l6.076-3.508c.667-.385 1.747-.385 2.414 0"/><path fill="#7ACFD3" d="M174.778 218.824l6.076 3.509c.666.385 1.746.385 2.412 0l6.076-3.508c.414-.239.54-.567.439-.876a.562.562 0 0 0 0-.358.562.562 0 0 0 0-.358.562.562 0 0 0 0-.358.56.56 0 0 0 0-.357.562.562 0 0 0 0-.358c.101-.309-.025-.638-.439-.876l-6.076-3.509c-.666-.385-1.746-.385-2.412 0l-6.076 3.509c-.414.238-.541.566-.44.875a.562.562 0 0 0 0 .358.562.562 0 0 0 0 .358.562.562 0 0 0 0 .358.562.562 0 0 0 0 .358.56.56 0 0 0 0 .357c-.101.31.026.638.44.876"/><path fill="#51C4C4" d="M181.651 216.086l-4.799-2.002-2.075 1.198c-.414.238-.539.566-.438.875a.562.562 0 0 0 0 .358.562.562 0 0 0 0 .358.562.562 0 0 0 0 .358.562.562 0 0 0 0 .358.56.56 0 0 0 0 .357c-.101.31.024.638.438.876l6.077 3.509c.227.131.506.201.797.242v-6.487z"/><path fill="#CFF1F9" d="M183.266 211.063l6.078 3.509c.666.385.666 1.009 0 1.394l-6.078 3.508c-.666.385-1.746.385-2.412 0l-6.078-3.508c-.666-.385-.666-1.009 0-1.394l6.076-3.509c.668-.384 1.748-.384 2.414 0"/><path fill="#7ACFD3" d="M188.927 226.994l6.076 3.508c.667.385 1.747.385 2.413 0l6.076-3.508c.414-.239.539-.567.439-.876a.562.562 0 0 0 0-.358.562.562 0 0 0 0-.358.56.56 0 0 0 0-.357.562.562 0 0 0 0-.358.562.562 0 0 0 0-.358c.1-.309-.025-.637-.439-.876l-6.076-3.508c-.666-.385-1.747-.385-2.413 0l-6.076 3.508c-.414.239-.54.567-.44.876a.562.562 0 0 0 0 .358.56.56 0 0 0 0 .357.562.562 0 0 0 0 .358.562.562 0 0 0 0 .358.562.562 0 0 0 0 .358c-.1.309.026.637.44.876"/><path fill="#51C4C4" d="M195.801 224.255l-4.799-2.002-2.076 1.198c-.414.24-.539.567-.438.876a.562.562 0 0 0 0 .358.56.56 0 0 0 0 .357.562.562 0 0 0 0 .358.562.562 0 0 0 0 .358.562.562 0 0 0 0 .358c-.101.309.024.637.438.876l6.078 3.508c.227.132.506.201.797.243v-6.488z"/><path fill="#CFF1F9" d="M197.417 219.233l6.077 3.508c.666.385.666 1.009 0 1.394l-6.077 3.509c-.666.385-1.747.385-2.413 0l-6.076-3.509c-.667-.385-.667-1.009 0-1.394l6.076-3.508c.665-.384 1.746-.384 2.413 0"/><path fill="#7ACFD3" d="M133.77 209.838l6.077 3.509c.666.386 1.746.386 2.412 0l6.077-3.509c.412-.238.539-.566.438-.875a.562.562 0 0 0 0-.358.562.562 0 0 0 0-.358.562.562 0 0 0 0-.358.562.562 0 0 0 0-.358.56.56 0 0 0 0-.357c.101-.309-.026-.638-.438-.876l-6.077-3.509c-.666-.385-1.746-.385-2.413 0l-6.076 3.509c-.414.238-.54.566-.439.875a.562.562 0 0 0 0 .358.562.562 0 0 0 0 .358.562.562 0 0 0 0 .358.56.56 0 0 0 0 .357.562.562 0 0 0 0 .358c-.101.309.025.638.439.876"/><path fill="#51C4C4" d="M140.643 207.1l-4.799-2.002-2.074 1.198c-.414.238-.539.566-.439.875a.562.562 0 0 0 0 .358.562.562 0 0 0 0 .358.562.562 0 0 0 0 .358.56.56 0 0 0 0 .357.562.562 0 0 0 0 .358c-.1.31.025.638.439.876l6.076 3.509c.228.131.506.201.797.242V207.1z"/><path fill="#CFF1F9" d="M142.259 202.077l6.077 3.509c.666.385.666 1.009 0 1.394l-6.077 3.508c-.666.385-1.747.385-2.413 0l-6.076-3.509c-.667-.384-.667-1.008 0-1.393l6.076-3.509c.666-.385 1.747-.385 2.413 0"/><path fill="#7ACFD3" d="M147.92 218.008l6.076 3.508c.666.385 1.748.385 2.414 0l6.075-3.508c.413-.239.539-.567.438-.876a.562.562 0 0 0 0-.358.562.562 0 0 0 0-.358.56.56 0 0 0 0-.357.562.562 0 0 0 0-.358.562.562 0 0 0 0-.358c.101-.309-.025-.637-.438-.876l-6.075-3.508c-.668-.385-1.748-.385-2.414 0l-6.076 3.508c-.414.238-.541.567-.439.876a.562.562 0 0 0 0 .358.56.56 0 0 0 0 .357.562.562 0 0 0 0 .358.562.562 0 0 0 0 .358.562.562 0 0 0 0 .358c-.102.308.025.637.439.876"/><path fill="#51C4C4" d="M154.793 215.269l-4.799-2.002-2.075 1.198c-.414.238-.539.567-.438.876a.562.562 0 0 0 0 .358.56.56 0 0 0 0 .357.56.56 0 0 0 0 .357.565.565 0 0 0 0 .359.562.562 0 0 0 0 .358c-.101.309.024.637.438.876l6.077 3.508c.227.131.506.201.797.243v-6.488z"/><path fill="#CFF1F9" d="M156.41 210.247l6.076 3.508c.667.385.667 1.009 0 1.394l-6.076 3.509c-.667.385-1.747.385-2.414 0l-6.076-3.509c-.666-.385-.666-1.009 0-1.394l6.076-3.508c.667-.385 1.747-.385 2.414 0"/><path fill="#7ACFD3" d="M162.07 226.177l6.076 3.509c.667.385 1.748.385 2.414 0l6.075-3.509c.414-.238.539-.567.439-.876a.562.562 0 0 0 0-.358.56.56 0 0 0 0-.357.562.562 0 0 0 0-.358.562.562 0 0 0 0-.358.562.562 0 0 0 0-.358c.1-.309-.025-.637-.439-.875l-6.075-3.509c-.667-.385-1.747-.385-2.414 0l-6.076 3.508c-.414.239-.54.567-.438.876a.536.536 0 0 0 0 .358.536.536 0 0 0 0 .358.533.533 0 0 0 0 .357.536.536 0 0 0 0 .358.536.536 0 0 0 0 .358c-.102.308.024.637.438.876"/><path fill="#51C4C4" d="M168.944 223.438l-4.799-2.002-2.076 1.197c-.412.239-.539.567-.438.876a.562.562 0 0 0 0 .358.562.562 0 0 0 0 .358.56.56 0 0 0 0 .357.562.562 0 0 0 0 .358.562.562 0 0 0 0 .358c-.101.309.026.637.438.876l6.078 3.509c.227.131.506.2.797.242v-6.487z"/><path fill="#CFF1F9" d="M170.559 218.416l6.077 3.509c.666.385.666 1.009 0 1.393l-6.077 3.509c-.666.385-1.747.385-2.413 0l-6.076-3.509c-.667-.385-.667-1.009 0-1.394l6.076-3.508c.666-.385 1.747-.385 2.413 0"/><path fill="#7ACFD3" d="M176.219 234.346l6.078 3.509c.666.386 1.746.386 2.412 0l6.076-3.508c.413-.239.539-.567.439-.876a.562.562 0 0 0 0-.358.562.562 0 0 0 0-.358.562.562 0 0 0 0-.358.56.56 0 0 0 0-.357.562.562 0 0 0 0-.358c.1-.309-.026-.637-.439-.876l-6.076-3.509c-.666-.385-1.746-.385-2.414 0l-6.076 3.509c-.414.238-.539.566-.438.876a.56.56 0 0 0 0 .357.562.562 0 0 0 0 .358.562.562 0 0 0 0 .358.562.562 0 0 0 0 .358.56.56 0 0 0 0 .357c-.101.309.024.637.438.876"/><path fill="#51C4C4" d="M183.093 231.607l-4.799-2.002-2.075 1.198c-.413.238-.539.566-.439.876a.56.56 0 0 0 0 .357.562.562 0 0 0 0 .358.562.562 0 0 0 0 .358.562.562 0 0 0 0 .358.56.56 0 0 0 0 .357c-.1.31.026.638.439.876l6.077 3.509c.228.131.506.201.797.242v-6.487z"/><path fill="#CFF1F9" d="M184.709 226.585l6.076 3.509c.667.385.667 1.009 0 1.394l-6.076 3.508c-.667.385-1.747.385-2.413 0l-6.077-3.508c-.666-.385-.666-1.009 0-1.394l6.076-3.509c.667-.385 1.747-.385 2.414 0"/><path fill="#1CE5FF" d="M229.813 12.096v2.875c0 1.695-1.834 2.755-3.302 1.909l-13.586-7.826a2.204 2.204 0 0 1-1.103-1.908V4.271c-.002-1.695 1.832-2.755 3.301-1.909l13.586 7.826a2.204 2.204 0 0 1 1.104 1.908M272.833 51.023l.001 2.882c0 1.692-1.83 2.752-3.298 1.91l-56.603-32.448a2.198 2.198 0 0 1-1.107-1.91l-.001-2.881c0-1.693 1.829-2.753 3.298-1.911l56.603 32.448a2.2 2.2 0 0 1 1.107 1.91"/><g><path fill="#1CE5FF" d="M249.503 66.275l.001 2.881c0 1.693-1.83 2.753-3.298 1.911l-33.267-19.07a2.202 2.202 0 0 1-1.107-1.91v-2.881c-.001-1.693 1.829-2.753 3.297-1.911l33.267 19.07a2.2 2.2 0 0 1 1.107 1.91"/></g><path fill="#1CE5FF" d="M264.059 60.307l.001 2.881c0 1.693-1.829 2.753-3.298 1.911l-47.826-27.417a2.2 2.2 0 0 1-1.105-1.909l-.002-2.882c0-1.692 1.83-2.752 3.297-1.911l47.827 27.417a2.204 2.204 0 0 1 1.106 1.91"/></svg>