<svg xmlns="http://www.w3.org/2000/svg" xmlns:xlink="http://www.w3.org/1999/xlink" width="399.13" height="340.805" viewBox="0 0 399.13 340.805"><defs><path id="a" d="M0 0h399.13v340.805H0z"/></defs><clipPath id="b"><use xlink:href="#a" overflow="visible"/></clipPath><path clip-path="url(#b)" fill="#F4F4F4" d="M44.195 233.31l-1.09 9.264-6.524 16.938 5.966 1.836 4.589-17.668.601-9.961z"/><path clip-path="url(#b)" fill="#0E8EC1" d="M30.252 278.101l2.915 29.479-.972 25.915h10.042l.54-1.93-6.882-.918 3.67-22.945 3.312-28.536z"/><path clip-path="url(#b)" fill="#0AF" d="M26.935 277.772l-2.285 25.11-15.373 20.422 1.835 9.637h4.591l-2.754-2.066-.46-6.194 14.685-16.52 13.309-29.601z"/><path clip-path="url(#b)" fill="#AFC6F5" d="M47.736 233.719l-.179-9.339-1.877-.234-1.486 9.164z"/><g clip-path="url(#b)"><defs><path id="c" d="M0 0h399.13v340.805H0z"/></defs><clipPath id="d"><use xlink:href="#c" overflow="visible"/></clipPath><path clip-path="url(#d)" fill="#AFC6F5" d="M29.48 246.657c-.692 3.396-.73 8.588 4.367 9.406 5.057.813 8.106-2.394 8.846-5.779.74-3.386-.512-7.741-5.743-8.417-3.437-.444-6.917 2.074-7.47 4.79"/><path clip-path="url(#d)" fill="#186E89" d="M33.145 255.83c-3.638-.979-5.019-4.487-4.494-8.028.642-4.333 4.915-6.675 8.3-5.935.204.045.388.128.583.19.068.525.039 1.068-.111 1.498-.581 1.673-2.07 3.069-3.765 3.583 0 0-1.063 7.594-.513 8.692"/><path clip-path="url(#d)" fill="#186E89" d="M32.721 247.716c-.515-.076-1.047.053-1.504.302-1.472.802-.955 3.011.345 3.71.419.226.894.335 1.368.381.411.039.85.026 1.202-.189.34-.209.554-.587.631-.979.077-.393.031-.799-.055-1.188-.196-.891-1.055-1.9-1.987-2.037"/><path clip-path="url(#d)" fill="#F7F5EF" d="M38.301 245.665c.463 1.241 1.598 1.963 2.534 1.613.936-.349 1.32-1.638.857-2.879-.463-1.24-1.598-1.963-2.534-1.613s-1.32 1.638-.857 2.879"/><path clip-path="url(#d)" fill="#8E574A" d="M44.625 223.09a2.112 2.112 0 1 0 4.223-.001 2.112 2.112 0 0 0-4.223.001"/><path clip-path="url(#d)" fill="#F7F5EF" d="M54.547 237.261l-3.206 1.061a25.55 25.55 0 0 1-6.342 9.979l-6.001 5.83-7.388 4.99-5.488 20.357 17.168 1.62.567-22.433 6.374-7.968a25.525 25.525 0 0 0 5.164-11.271l-.848-2.165z"/><path clip-path="url(#d)" fill="#0AF" d="M62.687 186.514h-23.93a7.402 7.402 0 0 0-7.401 7.402v23.929a7.402 7.402 0 0 0 7.401 7.401h23.929a7.402 7.402 0 0 0 7.402-7.401v-23.929a7.402 7.402 0 0 0-7.401-7.402"/><path clip-path="url(#d)" fill="#AFC6F5" d="M55.177 224.504a2.111 2.111 0 1 0 4.222 0 2.111 2.111 0 0 0-4.222 0"/><path clip-path="url(#d)" fill="#AFC6F5" d="M51.006 239.44l4.223 1.499 3.395-15.469-2.423-.551z"/><path clip-path="url(#d)" fill="#FFF" d="M60.105 201.036c0 5.425-9.823 19.823-9.823 19.823s-9.822-14.398-9.822-19.823 4.397-9.823 9.822-9.823c5.426-.001 9.823 4.398 9.823 9.823"/><path clip-path="url(#d)" fill="#0AF" d="M54.989 200.216a4.706 4.706 0 1 1-9.413.001 4.706 4.706 0 0 1 9.413-.001"/><g opacity=".5" clip-path="url(#d)"><defs><path id="e" d="M0 332.3h77.999v2H0z"/></defs><clipPath id="f"><use xlink:href="#e" overflow="visible"/></clipPath><path clip-path="url(#f)" fill="none" stroke="#CECECE" stroke-width="2" stroke-linecap="round" stroke-miterlimit="10" d="M1 333.3h75.999"/></g><path clip-path="url(#d)" fill="#F7F5EF" d="M238.988 46.303h-83.979a8.59 8.59 0 0 0-8.589 8.589v200.82a8.59 8.59 0 0 0 8.589 8.589h83.979a8.59 8.59 0 0 0 8.59-8.589V54.892a8.59 8.59 0 0 0-8.59-8.589"/><path clip-path="url(#d)" fill="#186E89" d="M238.988 46.303h-83.979a8.59 8.59 0 0 0-8.589 8.589v8.702h101.158v-8.702a8.59 8.59 0 0 0-8.59-8.589M146.42 244.761v10.951a8.59 8.59 0 0 0 8.589 8.589h83.98a8.59 8.59 0 0 0 8.589-8.589v-10.951H146.42z"/><path clip-path="url(#d)" fill="#ECBF49" d="M231.687 69.514h-23.929a7.401 7.401 0 0 0-7.401 7.402v23.929a7.4 7.4 0 0 0 7.401 7.401h23.929a7.4 7.4 0 0 0 7.401-7.401V76.916a7.401 7.401 0 0 0-7.401-7.402"/><path clip-path="url(#d)" fill="#186E89" d="M231.687 187.03h-23.929a7.401 7.401 0 0 0-7.401 7.402v23.929a7.4 7.4 0 0 0 7.401 7.401h23.929a7.4 7.4 0 0 0 7.401-7.401v-23.929a7.401 7.401 0 0 0-7.401-7.402"/><path clip-path="url(#d)" fill="#2E3747" d="M185.943 187.03h-23.929a7.402 7.402 0 0 0-7.402 7.402v23.929a7.401 7.401 0 0 0 7.402 7.401h23.929a7.401 7.401 0 0 0 7.402-7.401v-23.929a7.402 7.402 0 0 0-7.402-7.402"/><g opacity=".5" clip-path="url(#d)"><defs><path id="g" d="M145.014 264.291h111v2h-111z"/></defs><clipPath id="h"><use xlink:href="#g" overflow="visible"/></clipPath><path clip-path="url(#h)" fill="none" stroke="#CECECE" stroke-width="2" stroke-linecap="round" stroke-miterlimit="10" d="M146.014 265.291h109.001"/></g><path transform="rotate(80.567 279.452 229.544)" clip-path="url(#d)" fill="#186E89" d="M238.968 229.059h80.984v.999h-80.984z"/><path transform="rotate(80.561 255.071 229.558)" clip-path="url(#d)" fill="#186E89" d="M214.588 229.059h80.985v.999h-80.985z"/><path clip-path="url(#d)" fill="#1F1F89" d="M251.271 206.092h24.598v1h-24.598zM253.012 216.759h24.6v1h-24.6zM254.754 227.425h24.598v1h-24.598zM256.495 238.091h24.598v1h-24.598zM258.236 248.758h24.598v1h-24.598zM259.978 259.424h24.6v1h-24.6z"/><path transform="rotate(9.445 241.057 229.53)" clip-path="url(#d)" fill="#3878FF" d="M240.581 189.066h1v80.985h-1z"/><path transform="rotate(9.451 265.521 229.62)" clip-path="url(#d)" fill="#3878FF" d="M264.96 189.066h.999v80.984h-.999z"/><path clip-path="url(#d)" fill="#3878FF" d="M244.671 206.092h24.598v1h-24.598zM242.93 216.759h24.599v1H242.93zM241.189 227.425h24.598v1h-24.598zM239.447 238.091h24.598v1h-24.598zM237.705 248.758h24.598v1h-24.598zM235.964 259.424h24.599v1h-24.599z"/><path clip-path="url(#d)" fill="#0AF" d="M245.73 188.372h30v3h-30zM301.918 174.895l-2.937-30.207-3.776-32.305 2.939-.419 6.712 30.626 10.489.84 10.907-31.047 2.937.42-7.97 33.144.419 28.109z"/><path clip-path="url(#d)" fill="#AFC6F5" d="M305.651 133.625c-.793 2.896.458 7.541 3.354 8.333 2.895.793 6.338-2.567 7.13-5.462a5.435 5.435 0 0 0-10.484-2.871"/><path clip-path="url(#d)" fill="#186E89" d="M309.521 131.955c-.593-.163-1.421-.568-1.735-1.126-.031-.053-.043-.103-.062-.153 1.287-.929 2.954-1.308 4.604-.856a5.434 5.434 0 0 1 3.806 6.677c-.564 2.067-2.482 4.363-4.588 5.223.038-.583.18-1.161.329-1.729.601-2.289 1.269-4.56 2.002-6.809a29.175 29.175 0 0 1-4.356-1.227"/><path clip-path="url(#d)" fill="#AFC6F5" d="M312.904 136.381c.394-.287.93-.417 1.377-.225.103.045.2.106.279.185.216.216.28.546.253.85-.071.84-.763 1.545-1.568 1.794a1.597 1.597 0 0 1-.708.075.9.9 0 0 1-.605-.349c-.506-.723.409-1.918.972-2.33"/><path clip-path="url(#d)" fill="#2E3747" d="M321.637 174.056l-2.91 46.332h-3.206l-2.722-45.956-2.861.122-1.751 46.967-2.474-.057-3.795-46.569-.557-5.737 20.207.263z"/><path clip-path="url(#d)" fill="#2E3747" d="M318.726 220.388l7.048.777-.255 1.092h-10.321l.323-1.869zM308.186 221.521v1.316l-9.681.367v-1.211l7.208-.529z"/><path clip-path="url(#d)" fill="#186E89" d="M310.846 137.553c-1.764.191-3.164-1.586-4.925-1.81a.596.596 0 0 0-.327.027c-.13.061-.204.198-.27.326-.224.435-.447.869-.669 1.304-.229.444-.458.894-.56 1.383-.118.585-.045 1.192.055 1.781.079.467.175.937.384 1.361.374.759 1.092 1.314 1.887 1.604.794.29 1.66.335 2.503.26.575-.051 1.153-.159 1.669-.419 1.143-.576 1.836-1.927 1.641-3.19-.048-.312-.146-.623-.112-.937.033-.307.188-.585.34-.854.172-.305 1.336-1.83.425-1.838-.275-.003-.678.471-.92.61a2.858 2.858 0 0 1-1.121.392"/><g opacity=".4" clip-path="url(#d)"><defs><path id="i" d="M295.206 111.964h33.983v11.121h-33.983z"/></defs><clipPath id="j"><use xlink:href="#i" overflow="visible"/></clipPath><path clip-path="url(#j)" fill="#AFC6F5" d="M322.492 123.085h4.225l2.471-10.283-2.935-.419zM298.143 111.964l-2.938.419 1.251 10.703h4.125z"/></g><path clip-path="url(#d)" fill="#AFC6F5" d="M369.887 79.3h-97.81a8.69 8.69 0 0 0-8.688 8.689v14.564a8.69 8.69 0 0 0 8.688 8.689h97.81c4.8 0 8.688-3.89 8.688-8.689V87.989a8.688 8.688 0 0 0-8.688-8.689"/><path clip-path="url(#d)" fill="#F7F5EF" d="M366.998 79.3h-97.809a8.69 8.69 0 0 0-8.689 8.689v14.564a8.69 8.69 0 0 0 8.689 8.689h97.809c4.8 0 8.689-3.89 8.689-8.689V87.989a8.688 8.688 0 0 0-8.689-8.689"/><path clip-path="url(#d)" fill="#AFC6F5" d="M368.399 103.861l-4.692-4.881a7.945 7.945 0 0 0 1.868-5.122c0-4.391-3.572-7.965-7.966-7.965-4.392 0-7.965 3.574-7.965 7.965 0 4.393 3.573 7.966 7.965 7.966a7.865 7.865 0 0 0 4.563-1.443l4.732 4.921a1.036 1.036 0 0 0 1.468.029 1.04 1.04 0 0 0 .027-1.47m-10.79-15.889a5.895 5.895 0 0 1 5.888 5.886c0 3.247-2.643 5.887-5.888 5.887s-5.887-2.64-5.887-5.887a5.895 5.895 0 0 1 5.887-5.886"/><g opacity=".5" clip-path="url(#d)"><defs><path id="k" d="M268.996 222.3h106.001v2H268.996z"/></defs><clipPath id="l"><use xlink:href="#k" overflow="visible"/></clipPath><path clip-path="url(#l)" fill="none" stroke="#CECECE" stroke-width="2" stroke-linecap="round" stroke-miterlimit="10" d="M269.997 223.3h104"/></g><path clip-path="url(#d)" fill="#AFC6F5" d="M298.82 110.705a2.516 2.516 0 1 1-5.033.001 2.516 2.516 0 0 1 5.033-.001M329.215 111.416a2.517 2.517 0 1 1-5.035 0 2.517 2.517 0 0 1 5.035 0M206.479 118.815a2.756 2.756 0 1 1-5.148 1.97 2.756 2.756 0 0 1 5.148-1.97"/><path clip-path="url(#d)" fill="#0AF" d="M198.151 106.813l-23.568-4.138a7.402 7.402 0 0 0-8.57 6.011l-4.138 23.568a7.402 7.402 0 0 0 6.01 8.57l23.568 4.137a7.401 7.401 0 0 0 8.571-6.01l4.139-23.568a7.405 7.405 0 0 0-6.012-8.57M84.086 240.461h17.333a1 1 0 0 0 .734-1.68l-16.667-17.999-1.467 1.358 15.111 16.32H84.086v2.001z"/><path clip-path="url(#d)" fill="#B28C36" d="M205.848 119.112l7.439 2.909 21.636 2.046-7.222 5.096-15.201-3.65-7.77-3.56z"/><path clip-path="url(#d)" fill="#AFC6F5" d="M231.988 115.832a6.067 6.067 0 1 1-11.334 4.336 6.067 6.067 0 0 1 11.334-4.336"/><path clip-path="url(#d)" fill="#2E3747" d="M254.701 140.922l-2.495 25.246.831 22.193h-8.6l-.462-1.653 5.895-.786-3.144-19.651-2.837-24.438z"/><path clip-path="url(#d)" fill="#ECBF49" d="M202.389 121.734c3.17 1.29 13.81 4.12 17.221 3.844l7.141-.577 7.383-1.946 16.215 7.948-8.643 11.976-14.773-12.289-8.73-.388c-3.588-.159-13.773-4.045-16.865-5.876l1.051-2.692z"/><path clip-path="url(#d)" fill="#186E89" d="M232.923 114.283c-1.264-2.858-6.339-3.555-9.165-2.224-.171.081-.315.191-.475.286.046.475.182.945.4 1.293.846 1.354 2.436 2.282 4.029 2.392 0 0 .119.315.299.801.188-.208.396-.387.641-.482.437-.17.931-.164 1.382-.037 1.455.409 1.446 2.454.444 3.33-.324.283-.718.474-1.126.61-.049.016-.103.021-.153.035-.131 1.965-.011 2.194.416 2.808 2.309-1.698 4.973-5.045 3.308-8.812"/><path clip-path="url(#d)" fill="#2E3747" d="M281.174 137.569l-14.51 6.32-16.71-12.842-8.572 11.757 25.271 7.759 14.958-10.033 3.18 3.551 1.074-1.042z"/><path clip-path="url(#d)" fill="#AFC6F5" d="M203.278 121.639a2.756 2.756 0 1 1-5.147 1.972 2.756 2.756 0 0 1 5.147-1.972"/><path clip-path="url(#d)" fill="#0AF" d="M83.193 51.887h19.566v196.668H83.193V51.887zm17.566 2H85.193v192.668h15.566V53.887z"/><path clip-path="url(#d)" fill="#0AF" d="M80.514 238.03h24.923v17.859H80.514zM84.086 166.551h17.333a1.001 1.001 0 0 0 .734-1.68l-16.667-17.999-1.467 1.358 15.111 16.321H84.086v2z"/><path clip-path="url(#d)" fill="#0AF" d="M84.086 185.029h17.333a1.001 1.001 0 0 0 .734-1.68l-16.667-18-1.467 1.359 15.111 16.32H84.086v2.001z"/><path clip-path="url(#d)" fill="#0AF" d="M84.086 203.506h17.333a1.001 1.001 0 0 0 .734-1.68l-16.667-17.999-1.467 1.358 15.111 16.32H84.086v2.001z"/><path clip-path="url(#d)" fill="#0AF" d="M84.086 221.984h17.333a1.001 1.001 0 0 0 .734-1.68l-16.667-17.999-1.467 1.358 15.111 16.32H84.086v2.001zM84.086 148.517h17.333a1.001 1.001 0 0 0 .734-1.679l-16.667-18-1.467 1.358 15.111 16.321H84.086v2z"/><path clip-path="url(#d)" fill="#0AF" d="M84.086 130.45h17.333a1.001 1.001 0 0 0 .734-1.679l-16.667-18-1.467 1.358L99.13 128.45H84.086v2z"/><path clip-path="url(#d)" fill="#0AF" d="M84.086 112.417h17.333a.999.999 0 1 0 .734-1.679l-16.667-18-1.467 1.358 15.111 16.321H84.086v2z"/><path clip-path="url(#d)" fill="#0AF" d="M84.086 94.382h17.333a.999.999 0 1 0 .734-1.679l-16.667-18-1.467 1.358L99.13 92.382H84.086v2z"/><path clip-path="url(#d)" fill="#0AF" d="M84.086 76.348h17.333a1 1 0 0 0 .734-1.679l-16.667-18-1.467 1.358L99.13 74.348H84.086v2z"/><path clip-path="url(#d)" fill="#3878FF" d="M84.086 58.314h17.333a1.001 1.001 0 0 0 .734-1.679l-16.667-18-1.467 1.358L99.13 56.314H84.086v2z"/><path clip-path="url(#d)" fill="#186E89" d="M83.226 31.933h31.719v26.74H83.226zM35.56 31.933h31.719v15.359H35.56z"/><path clip-path="url(#d)" fill="#0AF" d="M36.086 33.885h156.667a1 1 0 0 0 0-2H36.086a1 1 0 0 0 0 2M184.475 37.553h1v65h-1z"/><path clip-path="url(#d)" fill="#186E89" d="M72.014 252.697h41.924v7.858H72.014z"/><path clip-path="url(#d)" fill="#0AF" d="M98.969 33.624a.5.5 0 0 0 .354-.147l8.353-8.353h76.586l7.853 7.853a.5.5 0 0 0 .708-.707l-8.147-8.146h-77.414l-8.647 8.646a.5.5 0 0 0 .354.854M35.418 33.624a.5.5 0 0 0 .443-.269l8.36-15.97h20.274l7.861 15.465a.501.501 0 0 0 .892-.453l-8.14-16.012H43.616l-8.64 16.507a.5.5 0 0 0 .442.732"/><path clip-path="url(#d)" fill="#186E89" d="M181.308 37.552a3.667 3.667 0 1 0 7.333 0 3.667 3.667 0 0 0-7.333 0"/><path clip-path="url(#d)" fill="#0AF" d="M163.295 25.117a.5.5 0 0 0 .146-.979L89.408 1.565a.5.5 0 0 0-.341.018L53.979 16.392a.499.499 0 1 0 .388.921L89.29 2.575l73.86 22.52a.491.491 0 0 0 .145.022"/><path clip-path="url(#d)" fill="#0AF" d="M100.91 33.691a1 1 0 0 0 .935-1.356L90.187 1.66a1 1 0 1 0-1.915.158l-6.026 29.917a1 1 0 0 0 .783 1.178 1.004 1.004 0 0 0 1.178-.784L89.549 5.61l10.426 27.436a1 1 0 0 0 .935.645"/><path clip-path="url(#d)" fill="#0AF" d="M87.237 2.016a2.015 2.015 0 1 0 4.03 0 2.015 2.015 0 0 0-4.03 0M173.836 33.719c.11 0 .221-.036.314-.111l9.819-7.937v7.421a.5.5 0 0 0 1 0v-8.468a.5.5 0 0 0-.814-.389l-10.634 8.595a.5.5 0 0 0 .315.889"/><path clip-path="url(#d)" fill="#0AF" d="M164.341 33.719c.11 0 .221-.036.314-.111l9.82-7.937v7.421a.5.5 0 1 0 1 0v-8.468a.5.5 0 0 0-.815-.389l-10.634 8.595a.5.5 0 0 0 .315.889"/><path clip-path="url(#d)" fill="#0AF" d="M154.845 33.719c.11 0 .221-.036.314-.111l9.82-7.937v7.421a.5.5 0 1 0 1 0v-8.468a.5.5 0 0 0-.815-.389L154.53 32.83a.5.5 0 0 0 .315.889"/><path clip-path="url(#d)" fill="#0AF" d="M145.35 33.719c.11 0 .221-.036.314-.111l9.819-7.937v7.421a.5.5 0 0 0 1 0v-8.468a.5.5 0 0 0-.814-.389l-10.634 8.595a.5.5 0 0 0 .315.889"/><path clip-path="url(#d)" fill="#0AF" d="M135.854 33.719c.11 0 .221-.036.314-.111l9.82-7.937v7.421a.5.5 0 1 0 1 0v-8.468a.5.5 0 0 0-.815-.389L135.54 32.83a.5.5 0 0 0 .314.889"/><path clip-path="url(#d)" fill="#0AF" d="M126.359 33.719c.11 0 .221-.036.314-.111l9.82-7.937v7.421a.5.5 0 1 0 1 0v-8.468a.5.5 0 0 0-.815-.389l-10.634 8.595a.5.5 0 0 0 .315.889"/><path clip-path="url(#d)" fill="#0AF" d="M116.864 33.719c.11 0 .221-.036.314-.111l9.82-7.937v7.421a.5.5 0 1 0 1 0v-8.468a.5.5 0 0 0-.815-.389l-10.634 8.595a.5.5 0 0 0 .315.889"/><path clip-path="url(#d)" fill="#0AF" d="M107.368 33.719c.11 0 .221-.036.314-.111l9.82-7.937v7.421a.5.5 0 1 0 1 0v-8.468a.5.5 0 0 0-.815-.389l-10.634 8.595a.5.5 0 0 0 .315.889M51.233 33.719c.142 0 .283-.06.382-.177l12.753-15.051v14.601a.5.5 0 0 0 1 0V17.128a.499.499 0 0 0-.881-.324L50.853 32.896a.5.5 0 0 0 .38.823"/><path clip-path="url(#d)" fill="#0AF" d="M41.425 33.719a.497.497 0 0 0 .417-.224l9.718-14.703v14.3a.5.5 0 1 0 1 0V17.128a.5.5 0 0 0-.917-.276L41.008 32.943a.5.5 0 0 0 .417.776"/><path clip-path="url(#d)" fill="#186E89" d="M181.826 103.886a3.148 3.148 0 1 0 6.296 0 3.148 3.148 0 0 0-6.296 0"/><g opacity=".5" clip-path="url(#d)"><defs><path id="m" d="M53 260.3h77.999v2H53z"/></defs><clipPath id="n"><use xlink:href="#m" overflow="visible"/></clipPath><path clip-path="url(#n)" fill="none" stroke="#CECECE" stroke-width="2" stroke-linecap="round" stroke-miterlimit="10" d="M54 261.3h75.999"/></g><path clip-path="url(#d)" fill="#ECBF49" d="M370.359 293.634l-1.134-15.677 1.753-11.54 5.956-34.007-2.877-.411-6.575 29.996-10.271.822-10.684-30.407-2.878.41 7.809 32.462 2.74 12.408-.322 15.123z"/><path clip-path="url(#d)" fill="#1F1F89" d="M356.203 251.72l-1.013 8.966 6.104.487 3.73-9.453z"/><path clip-path="url(#d)" fill="#AFC6F5" d="M367.457 255.009a6.164 6.164 0 1 1-12.328 0 6.164 6.164 0 0 1 12.328 0"/><path clip-path="url(#d)" fill="#0AF" d="M372.688 194.514h-23.93a7.401 7.401 0 0 0-7.401 7.402v23.929a7.4 7.4 0 0 0 7.401 7.401h23.93a7.4 7.4 0 0 0 7.4-7.401v-23.929a7.402 7.402 0 0 0-7.4-7.402"/><path clip-path="url(#d)" fill="#1F1F89" d="M363.556 254.599c.121.059.261.113.386.063.125-.047.188-.181.27-.287.321-.417 1.021-.416 1.395-.047.373.371.409 1.003.15 1.461-.259.456-.763.742-1.283.82a11.698 11.698 0 0 0-.415 3.76l2.539.188c.165.012.347.02.478-.082.122-.095.165-.258.197-.409.315-1.451.474-2.938.472-4.424-.003-1.447-.176-2.948-.923-4.188-.896-1.485-4.565-3.928-6.355-2.559-1.974 1.511 1.725 5.048 3.089 5.704"/><path clip-path="url(#d)" fill="#1F1F89" d="M358.451 252.478c-1.044 1.021-2.396 1.8-3.854 1.864a5.5 5.5 0 0 1 1.886-4.334c.696-.596 3.033-1.916 3.99-1.282.992.656-1.318 3.062-2.022 3.752"/><path clip-path="url(#d)" fill="#0E8EC1" d="M369.759 282.514l-15.715-.735-12.09 54.148-5.609-3.415 6.829 8.293 16.097-44.633-.243 20.244 10.914 14.461.697 5.22.289 2.219 1.944-.231.355-7.955-8.449-13.738 5.961-22.743z"/><path clip-path="url(#d)" fill="#AFC6F5" d="M370.751 247.081l3.404 1.193 2.78-15.864-2.877-.411zM350.938 244.964l-3.988 1.575-3.3-13.719 2.877-.41zM364.269 262.251l-2.949 5.237-1.486-4.881z"/><path clip-path="url(#d)" fill="#AFC6F5" d="M342.363 230.766a2.466 2.466 0 1 0 4.931-.001 2.466 2.466 0 0 0-4.931.001M373.313 231.227a2.466 2.466 0 1 0 4.931-.001 2.466 2.466 0 0 0-4.931.001"/><path clip-path="url(#d)" fill="#F7F5EF" d="M365.705 207.28a5.07 5.07 0 1 1-10.14-.001 5.07 5.07 0 0 1 10.14.001M370.597 222.658c-.092-5.288-4.398-9.548-9.709-9.548-5.31 0-9.616 4.26-9.709 9.548h19.418z"/><g opacity=".5" clip-path="url(#d)"><defs><path id="o" d="M321.131 338.805h77.999v2h-77.999z"/></defs><clipPath id="p"><use xlink:href="#o" overflow="visible"/></clipPath><path clip-path="url(#p)" fill="none" stroke="#CECECE" stroke-width="2" stroke-linecap="round" stroke-miterlimit="10" d="M322.13 339.805h75.999"/></g><g opacity=".5" clip-path="url(#d)"><defs><path id="q" d="M219.13 268.305h77.999v2H219.13z"/></defs><clipPath id="r"><use xlink:href="#q" overflow="visible"/></clipPath><path clip-path="url(#r)" fill="none" stroke="#CECECE" stroke-width="2" stroke-linecap="round" stroke-miterlimit="10" d="M220.13 269.305h75.999"/></g><path clip-path="url(#d)" fill="#186E89" d="M141.687 145.514h-23.929a7.402 7.402 0 0 0-7.401 7.402v23.929a7.402 7.402 0 0 0 7.401 7.401h23.929a7.402 7.402 0 0 0 7.402-7.401v-23.929a7.403 7.403 0 0 0-7.402-7.402"/><path clip-path="url(#d)" fill="#2E3747" d="M119.631 247.102l-2.917-29.998-3.75-32.081 2.917-.417 6.667 30.414 10.416.834 10.832-30.831 2.917.416-7.916 32.915.416 27.914z"/><path clip-path="url(#d)" fill="#AFC6F5" d="M117.548 183.356a2.5 2.5 0 1 1-5 0 2.5 2.5 0 0 1 5 0M146.713 184.189a2.5 2.5 0 1 1-5 0 2.5 2.5 0 0 1 5 0M134.351 205.906a6.358 6.358 0 1 1-12.715-.001 6.358 6.358 0 0 1 12.715.001"/><path clip-path="url(#d)" fill="#186E89" d="M134.351 206.906a6.358 6.358 0 1 1-12.715-.001 6.358 6.358 0 0 1 12.715.001"/><path clip-path="url(#d)" fill="#0E8EC1" d="M139.213 246.268l-2.89 46.012h-3.184l-2.703-45.638-2.842.121-1.738 46.643-2.456-.058-3.769-46.246-.554-5.698 20.068.262z"/><path clip-path="url(#d)" fill="#3878FF" d="M136.323 292.28l6.999.771-.254 1.085h-10.249l.32-1.856zM125.855 293.406v1.306l-9.614.364v-1.202l7.158-.526z"/><g opacity=".5" clip-path="url(#d)"><defs><path id="s" d="M104.131 293.805h57.998v2h-57.998z"/></defs><clipPath id="t"><use xlink:href="#s" overflow="visible"/></clipPath><path clip-path="url(#t)" fill="none" stroke="#CECECE" stroke-width="2" stroke-linecap="round" stroke-miterlimit="10" d="M105.131 294.805h55.998"/></g><path clip-path="url(#d)" fill="#B28C36" d="M214.43 305.844a.99.99 0 0 1-.029.228c-.005.019-.012.036-.019.055a1.104 1.104 0 0 1-.075.185c-.008.013-.014.027-.021.04a1.481 1.481 0 0 1-.191.26 2.328 2.328 0 0 1-.221.216 3.237 3.237 0 0 1-.271.202c-.027.019-.058.036-.085.055a4.122 4.122 0 0 1-.259.15l-.106.059a7.05 7.05 0 0 1-.311.146l-.122.056c-.155.065-.32.129-.499.19l-17.05 5.9c-.16.056-.344.097-.514.146-.251.073-.5.147-.769.207-.326.072-.664.134-1.009.187-.211.032-.428.057-.645.082-.268.031-.534.065-.809.086l-.166.013c-.439.029-.882.047-1.325.049h-.03c-.465.002-.93-.011-1.387-.04l-.016-.001a19.085 19.085 0 0 1-1.345-.132l-.032-.004a15.278 15.278 0 0 1-1.235-.22l-.039-.009c-.403-.09-.787-.195-1.141-.317l-16.791-5.751c-.094-.032-.177-.067-.265-.101-.078-.03-.162-.059-.236-.09-.079-.034-.147-.068-.22-.103-.07-.033-.146-.064-.21-.099-.064-.033-.117-.067-.175-.102-.064-.037-.133-.073-.191-.11-.051-.035-.093-.07-.14-.104-.053-.039-.111-.077-.158-.117-.046-.039-.081-.079-.121-.119-.037-.037-.08-.073-.112-.111-.041-.047-.071-.096-.103-.144-.02-.03-.047-.06-.063-.09-.023-.039-.034-.079-.051-.118a.967.967 0 0 1-.086-.361l.061 7.511c0 .121.035.241.085.361.017.039.028.079.05.118.017.03.044.06.064.09.032.048.062.097.103.145.028.033.066.064.097.097.045.044.084.089.136.133.033.027.074.054.109.081.062.047.12.094.19.141.043.028.095.055.142.083.073.043.142.087.223.129.047.024.101.047.151.07.091.045.179.088.28.132.061.025.132.049.197.074.097.038.191.076.296.112l.007.003 16.791 5.751a10.5 10.5 0 0 0 1.105.311l.037.008.036.008a14.275 14.275 0 0 0 .859.164c.125.021.251.038.378.056l.032.005a14.485 14.485 0 0 0 1.345.13l.016.001.018.003c.154.009.308.017.463.022a18.69 18.69 0 0 0 .909.016H190.024a22.199 22.199 0 0 0 1.081-.033c.071-.004.141-.011.212-.016l.169-.013c.104-.008.209-.014.312-.023.169-.015.329-.043.495-.063.218-.025.434-.049.646-.082.061-.009.127-.014.187-.023.248-.041.491-.087.727-.138.033-.007.061-.018.094-.025.271-.06.521-.134.774-.209.131-.037.277-.065.402-.106l.108-.037 17.05-5.9c.17-.059.329-.119.478-.182l.021-.009c.045-.019.084-.039.127-.058.086-.04.174-.076.253-.116l.051-.027.109-.059c.049-.027.102-.054.148-.081.038-.023.071-.046.108-.069l.085-.055c.018-.013.039-.024.056-.036.073-.052.143-.104.204-.156l.013-.01.027-.025c.045-.039.089-.078.128-.118.025-.024.044-.049.066-.073l.042-.048.031-.034a1.48 1.48 0 0 0 .117-.178c.01-.013.015-.026.021-.04.018-.034.038-.068.051-.103.011-.027.018-.055.026-.082l.016-.054.011-.034a.843.843 0 0 0 .021-.18v-.015l-.061-7.514z"/><path clip-path="url(#d)" fill="#ECBF49" d="M212.306 304.081c2.866.982 2.824 2.597-.087 3.604l-17.05 5.9c-2.911 1.008-7.595 1.028-10.462.046l-16.791-5.751c-2.867-.982-2.838-2.597.074-3.604l17.05-5.9c2.911-1.008 7.607-1.028 10.474-.046l16.792 5.751z"/><path clip-path="url(#d)" fill="#046F99" d="M280.53 299.406a.938.938 0 0 1-.029.228c-.004.019-.012.036-.018.055a1.11 1.11 0 0 1-.076.185l-.021.04a1.481 1.481 0 0 1-.192.26 2.328 2.328 0 0 1-.22.216 3.41 3.41 0 0 1-.271.202c-.027.019-.058.036-.085.055a4.154 4.154 0 0 1-.26.15l-.105.059a7.05 7.05 0 0 1-.311.146c-.042.018-.079.037-.122.056a7.967 7.967 0 0 1-.499.19l-17.051 5.9c-.16.056-.343.097-.513.146-.251.073-.5.147-.771.207-.324.072-.663.134-1.009.187-.211.033-.427.057-.644.082-.269.031-.534.065-.81.086-.056.004-.11.009-.167.012-.438.03-.881.048-1.324.05h-.029c-.465.002-.931-.012-1.387-.04l-.017-.001a17.965 17.965 0 0 1-1.345-.132l-.033-.004c-.426-.059-.84-.132-1.235-.22l-.038-.008a11.101 11.101 0 0 1-1.142-.318l-16.791-5.751c-.093-.032-.176-.067-.264-.101-.078-.03-.162-.059-.236-.09-.079-.033-.146-.068-.22-.103-.071-.033-.146-.064-.21-.099-.064-.033-.117-.067-.175-.102-.065-.037-.134-.073-.191-.11-.051-.034-.093-.07-.14-.104-.054-.039-.112-.077-.158-.117-.046-.039-.081-.079-.121-.119-.038-.037-.081-.073-.112-.11-.042-.048-.07-.097-.103-.145-.021-.03-.047-.06-.064-.09-.021-.039-.033-.079-.05-.118a.967.967 0 0 1-.086-.361l.06 7.511a.948.948 0 0 0 .086.361c.018.039.028.079.051.118.017.03.044.06.063.09.033.049.063.097.104.145.027.033.064.064.097.097.044.044.084.089.136.133.032.027.073.054.109.081.061.047.12.095.189.141.043.028.096.055.143.083.073.043.142.087.223.129.046.024.102.047.151.07.09.046.179.089.28.132.06.025.132.049.195.074.099.038.192.076.297.112l.007.003 16.792 5.751a11.1 11.1 0 0 0 1.104.311l.037.008.037.008a14.973 14.973 0 0 0 .858.164c.125.021.251.038.378.056l.032.004a20.013 20.013 0 0 0 1.345.132l.016.001.018.002c.153.009.309.017.463.022.158.007.316.011.476.014.144.003.289.003.433.003H256.123a26.213 26.213 0 0 0 1.081-.034c.07-.004.141-.011.212-.016l.169-.013c.103-.008.209-.014.311-.023.17-.015.329-.043.496-.063.218-.025.435-.049.646-.082.061-.009.127-.014.187-.023.247-.041.491-.087.728-.138.032-.007.06-.018.094-.024.271-.061.521-.135.772-.209.133-.038.277-.066.402-.107l.109-.037 17.05-5.9a8.03 8.03 0 0 0 .478-.182l.021-.009c.045-.019.084-.039.127-.057.087-.04.174-.077.254-.117.018-.008.033-.019.05-.027l.109-.059c.05-.027.103-.054.149-.081.038-.023.071-.046.108-.069.028-.019.057-.036.084-.055.019-.013.04-.024.057-.036.073-.052.143-.104.204-.156l.012-.01.027-.025c.045-.039.09-.079.129-.118.025-.024.044-.049.066-.073l.041-.047c.009-.012.021-.023.031-.035.042-.053.077-.105.108-.158l.01-.02a.219.219 0 0 0 .021-.04c.018-.034.038-.068.051-.103.011-.027.018-.055.026-.082l.016-.054c.002-.012.008-.022.01-.034a.777.777 0 0 0 .021-.195l-.06-7.514z"/><path clip-path="url(#d)" fill="#0AF" d="M278.406 297.642c2.867.982 2.825 2.597-.086 3.604l-17.051 5.901c-2.911 1.008-7.594 1.028-10.462.046l-16.791-5.751c-2.867-.982-2.837-2.597.075-3.604l17.049-5.9c2.912-1.008 7.608-1.028 10.475-.046l16.791 5.75z"/></g></svg>