<svg xmlns="http://www.w3.org/2000/svg" width="300" height="55.502" viewBox="0 0 300 55.502"><path fill="#010101" d="M99.072 16.123c-.684-.582-1.578-1.039-2.659-1.361-1.069-.318-2.382-.48-3.902-.48H70.576v26.939h5.454v-9.783h16.481c1.52 0 2.833-.161 3.902-.479 1.077-.32 1.971-.778 2.659-1.361a5.196 5.196 0 001.513-2.104c.31-.8.466-1.701.466-2.677v-3.913c0-.95-.156-1.845-.466-2.658a5.183 5.183 0 00-1.513-2.123M76.03 18.645h16.481c2.077 0 3.086.728 3.086 2.221v3.988c0 1.495-1.009 2.221-3.086 2.221H76.03v-8.43zM133.497 16.123c-.684-.582-1.579-1.039-2.659-1.361-1.069-.318-2.382-.48-3.903-.48h-21.934v26.939h5.454v-9.783h16.48c1.521 0 2.834-.161 3.903-.479 1.077-.32 1.971-.778 2.659-1.361a5.215 5.215 0 001.513-2.104c.309-.8.466-1.701.466-2.677v-3.913c0-.95-.157-1.845-.466-2.658a5.192 5.192 0 00-1.513-2.123m-23.042 2.522h16.48c2.077 0 3.087.728 3.087 2.221v3.988c0 1.495-1.01 2.221-3.087 2.221h-16.48v-8.43zM139.426 41.221h27.691v-4.364H144.88V29.18h21.108v-4.363H144.88v-6.172h22.237v-4.364h-27.691zM202.699 14.281l-13.574 21.146-13.656-21.041-.067-.105h-6.224L187.02 41.12l.067.101h3.891l17.793-26.94zM219.367 14.281l-17.908 26.94h6.111l13.758-21.145 13.537 21.145h6.187l-17.794-26.94zM235.665 18.645h13.884v22.576h5.454V18.645h13.508v-4.364h-32.846zM300 18.645v-4.364h-27.689v26.94H300v-4.364h-22.234V29.18h21.107v-4.363h-21.107v-6.172z"/><path fill="#4AA1D7" d="M37.208 0L0 55.502l26.606-7.423 10.602-15.814L47.81 48.079l26.607 7.423L37.208 0zm.002 21.204L21.915 44.015l-8.568 2.562 23.861-35.594L61.07 46.576l-8.568-2.562-15.292-22.81z"/></svg>