<svg version="1.1" id="Слой_1" xmlns="http://www.w3.org/2000/svg" x="0" y="0" viewBox="0 0 136 136" xml:space="preserve"><style>.st1,.st3{fill-rule:evenodd;clip-rule:evenodd;fill:#f9a61a}.st3{fill:#fff}</style><path fill="#fff" d="M0 0h136v136H0z"/><path class="st1" d="M68.022 86.578a24.612 24.612 0 0016.705 6.501c13.777 0 24.928-11.237 24.928-25.058 0-13.863-11.151-25.101-24.928-25.101a24.612 24.612 0 00-16.705 6.501c-5.037 4.607-8.224 11.237-8.224 18.599a24.996 24.996 0 008.224 18.558z"/><path class="st1" d="M106.34 81.971c0-.431.345-.775.775-.775.473 0 .817.345.817.775a.791.791 0 01-.817.818c-.43 0-.775-.344-.775-.818zm.775.646c.345 0 .645-.302.645-.646s-.301-.602-.645-.602c-.302 0-.602.258-.602.602s.301.646.602.646zm-.086-.258h-.172v-.732h.301c.044 0 .13 0 .172.044.086.043.086.086.086.172s-.043.172-.129.172l.172.345h-.216l-.086-.302h-.129v.301-.431h.172c.043 0 .043-.044.043-.086 0-.044 0-.044-.043-.086h-.172v.603z"/><path d="M76.073 65.352c-.086-.904-.258-1.765-.431-2.669H60.401c.172-.904.431-1.765.689-2.626h13.82c-.3-.906-.645-1.797-1.033-2.669H62.166c.431-.912.905-1.803 1.421-2.669h8.827a22.63 22.63 0 00-1.894-2.626h-5.038a24.641 24.641 0 012.54-2.669c-4.434-4.004-10.29-6.501-16.748-6.501-13.734 0-24.928 11.238-24.928 25.101 0 13.821 11.194 25.058 24.928 25.058 6.458 0 12.313-2.455 16.748-6.501a23.854 23.854 0 002.498-2.627h-5.038a29.807 29.807 0 01-1.895-2.669h8.827a20.093 20.093 0 001.464-2.669H62.166c-.388-.861-.775-1.722-1.077-2.627H74.91c.301-.861.517-1.764.731-2.669.172-.861.345-1.764.431-2.669a27.083 27.083 0 00.001-5.299z" fill-rule="evenodd" clip-rule="evenodd" fill="#ed2027"/><path class="st3" d="M106.34 73.834c0-.473.345-.817.775-.817.473 0 .817.345.817.817a.817.817 0 01-.817.818c-.43 0-.775-.388-.775-.818zm.775.602c.345 0 .645-.258.645-.603 0-.344-.301-.602-.645-.602a.614.614 0 00-.602.602c0 .345.301.603.602.603zm-.086-.258h-.172v-.689h.473c.086.044.086.13.086.216 0 .043-.043.129-.129.172l.172.301h-.216l-.086-.258h-.129v.258-.387h.086c.043 0 .086 0 .086-.044.043 0 .043-.043.043-.086 0 0 0-.043-.043-.043 0-.044-.044 0-.086 0h-.086v.56z"/><path d="M59.54 75.255c-.818.215-1.421.345-2.023.345-1.292 0-2.067-.818-2.067-2.282 0-.301.043-.602.086-.947l.172-.99.129-.818L57 63.501h2.583l-.302 1.55h1.636l-.388 2.583h-1.636l-.689 4.219c-.043.216-.043.345-.043.431 0 .56.258.775.904.775.302 0 .559-.043.818-.086l-.343 2.282zm8.353-.086c-.947.258-1.808.387-2.756.387-2.928 0-4.607-1.55-4.607-4.606 0-3.574 1.981-6.157 4.736-6.157 2.196 0 3.616 1.464 3.616 3.745 0 .776-.086 1.507-.301 2.541H63.2c-.043.172-.043.258-.043.345 0 1.205.818 1.808 2.368 1.808.99 0 1.851-.215 2.799-.645l-.431 2.582zM66.3 69.012v-.517c0-.861-.474-1.335-1.292-1.335-.861 0-1.464.646-1.722 1.851l3.014.001zm-27.426 6.371h-2.669l1.55-9.773-3.487 9.773h-1.851l-.215-9.73-1.636 9.73H27.94l2.109-12.701h3.918l.086 7.836 2.626-7.836h4.306l-2.111 12.701zm6.502-4.606c-.258-.044-.345-.044-.517-.044-1.55 0-2.325.603-2.325 1.55 0 .646.388 1.077.99 1.077 1.292.001 1.808-1.076 1.852-2.583zm2.152 4.606h-2.325l.043-1.076c-.603.817-1.421 1.248-2.842 1.248-1.292 0-2.411-1.162-2.411-2.841 0-.473.086-.903.215-1.334.43-1.594 2.023-2.583 4.477-2.627.302 0 .775 0 1.205.044.086-.345.086-.474.086-.689 0-.689-.559-.905-1.808-.905-.775 0-1.636.129-2.239.345l-.388.086-.172.043.388-2.325c1.249-.388 2.153-.559 3.143-.559 2.325 0 3.573 1.076 3.573 3.057 0 .517.043.905-.129 2.024l-.602 3.703-.086.646-.043.517-.043.345-.042.298zm33.367-10.246c.775 0 1.464.215 2.411.689l.473-2.756c-.258-.129-.345-.129-.689-.258l-1.076-.302a5.311 5.311 0 00-1.249-.129c-1.335 0-2.11.043-2.927.517-.431.302-.991.689-1.594 1.378l-.345-.086-2.756 1.937.13-1.076h-2.842l-1.678 10.333h2.713l.99-5.553s.388-.776.56-1.033c.517-.646.947-.646 1.506-.646h.216c-.09.656-.134 1.318-.13 1.98 0 3.358 1.894 5.468 4.822 5.468.732 0 1.379-.086 2.368-.345l.474-2.927c-.861.473-1.636.689-2.282.689-1.593 0-2.541-1.205-2.541-3.1.001-2.8 1.422-4.78 3.446-4.78zm22.861-2.454l-.602 3.616c-.646-.99-1.421-1.464-2.455-1.464-1.421 0-2.756.818-3.574 2.368v-.043l-1.722-1.034.172-1.076H92.69l-1.636 10.333h2.669l.905-5.553s.689-.776.861-1.033c.431-.517.861-.604 1.205-.646-.301.861-.473 1.894-.473 3.057 0 2.583 1.334 4.305 3.314 4.305.991 0 1.765-.345 2.497-1.163l-.129 1.033h2.541l2.066-12.701-2.754.001zm-3.314 10.247c-.905 0-1.378-.689-1.378-2.024 0-2.024.861-3.487 2.109-3.487.947 0 1.421.732 1.421 2.024 0 2.066-.861 3.487-2.152 3.487zM88 70.777c-.258-.044-.345-.044-.517-.044-1.551 0-2.326.603-2.326 1.55 0 .646.388 1.077.991 1.077 1.291.001 1.808-1.076 1.852-2.583zm2.152 4.606h-2.368l.086-1.076c-.602.817-1.421 1.248-2.841 1.248-1.335 0-2.497-1.119-2.497-2.841 0-2.454 1.851-3.961 4.778-3.961.302 0 .775 0 1.163.044.086-.345.13-.474.13-.689 0-.689-.56-.904-1.852-.904-.732 0-1.636.129-2.239.345l-.345.086-.172.043.387-2.325c1.249-.388 2.154-.559 3.143-.559 2.325 0 3.53 1.076 3.53 3.057 0 .517.086.905-.129 2.024l-.56 3.703-.086.646-.086.517-.043.345.001.297zm-36.984-8.137c.517 0 1.249.043 2.024.172l.388-2.411c-.775-.086-1.808-.215-2.411-.215-3.013 0-4.004 1.636-4.004 3.53 0 1.249.559 2.153 2.023 2.841 1.076.517 1.249.602 1.249 1.077 0 .645-.559 1.033-1.593 1.033-.818 0-1.593-.13-2.454-.431l-.302 2.367.043.044.517.086c.172.043.388.086.689.129.646.044 1.205.086 1.55.086 3.014 0 4.263-1.162 4.263-3.444 0-1.42-.689-2.281-2.024-2.884-1.162-.517-1.292-.602-1.292-1.077-.001-.472.516-.903 1.334-.903z" fill-rule="evenodd" clip-rule="evenodd" fill="#1b3771"/><path class="st3" d="M84.512 62.252l-.474 2.756c-.947-.474-1.636-.689-2.411-.689-2.024 0-3.444 1.98-3.444 4.779 0 1.938.947 3.1 2.541 3.1.645 0 1.42-.215 2.281-.645l-.473 2.884c-.991.258-1.636.388-2.368.388-2.927 0-4.736-2.11-4.736-5.511 0-4.521 2.497-7.707 6.071-7.707.473 0 .903.043 1.248.129l1.077.258c.343.13.429.173.688.258zm-8.698 1.895h-.258c-.903 0-1.42.431-2.239 1.679l.258-1.593H71.12l-1.678 10.333h2.713c.99-6.329 1.248-7.405 2.54-7.405h.172c.258-1.249.602-2.153 1.033-2.971l-.086-.043zM60.229 74.436a5.6 5.6 0 01-1.937.345c-1.378 0-2.153-.775-2.153-2.281 0-.258.043-.602.086-.905l.172-1.033.129-.817 1.162-7.062h2.669l-.301 1.55h1.378l-.345 2.54h-1.378l-.732 4.306c-.043.172-.043.302-.043.431 0 .517.258.732.904.732.301 0 .559 0 .732-.086l-.343 2.28zm-10.376-6.931c0 1.292.602 2.196 2.023 2.885 1.119.517 1.292.689 1.292 1.119 0 .646-.474.947-1.55.947-.818 0-1.55-.129-2.411-.387l-.388 2.367.129.044.474.086c.172.043.388.086.732.086.602.086 1.119.086 1.464.086 2.841 0 4.176-1.077 4.176-3.444 0-1.421-.559-2.24-1.894-2.885-1.162-.517-1.292-.646-1.292-1.119 0-.559.474-.818 1.335-.818.517 0 1.249.043 1.938.129l.387-2.368a15.622 15.622 0 00-2.368-.215c-3.014 0-4.09 1.593-4.047 3.487zm55.282 7.061h-2.541l.13-.991c-.732.775-1.507 1.119-2.498 1.119-1.98 0-3.272-1.678-3.272-4.262 0-3.445 2.024-6.373 4.391-6.373 1.077 0 1.852.474 2.584 1.421l.602-3.616h2.669l-2.065 12.702zm-3.962-2.411c1.249 0 2.11-1.464 2.11-3.488 0-1.335-.474-2.024-1.421-2.024-1.205 0-2.109 1.421-2.109 3.445 0 1.378.473 2.067 1.42 2.067zM68.495 74.35a8.822 8.822 0 01-2.799.431c-3.014 0-4.564-1.593-4.564-4.65 0-3.53 1.981-6.157 4.693-6.157 2.239 0 3.659 1.464 3.659 3.746 0 .775-.086 1.507-.345 2.583h-5.338c-.043.13-.043.216-.043.302 0 1.205.818 1.808 2.368 1.808.99 0 1.851-.172 2.799-.646l-.43 2.583zm-1.507-6.156v-.516c0-.861-.474-1.335-1.292-1.335-.861 0-1.464.646-1.722 1.851h3.014zm-27.425 6.372h-2.669l1.55-9.774-3.487 9.774h-1.852l-.215-9.688-1.636 9.688h-2.497l2.109-12.701h3.875l.129 7.879 2.583-7.879h4.219l-2.109 12.701zm6.674-4.607c-.258 0-.388-.043-.603-.043-1.507 0-2.282.559-2.282 1.593 0 .646.345 1.033.947 1.033 1.119 0 1.894-1.033 1.938-2.583zm1.98 4.607h-2.239l.043-1.077c-.689.861-1.593 1.249-2.842 1.249-1.464 0-2.454-1.119-2.454-2.799 0-2.54 1.722-4.004 4.736-4.004.301 0 .689.043 1.119.086.086-.344.086-.473.086-.646 0-.689-.474-.947-1.722-.947-.775 0-1.636.086-2.239.258l-.388.129-.258.043.388-2.325c1.335-.388 2.239-.517 3.229-.517 2.325 0 3.573 1.033 3.573 3.013 0 .517-.043.905-.215 2.067l-.603 3.66-.086.645-.043.517-.043.388-.042.26zm40.644-4.607c-.302 0-.431-.043-.602-.043-1.55 0-2.326.559-2.326 1.593 0 .646.388 1.033.991 1.033 1.076 0 1.893-1.033 1.937-2.583zm1.98 4.607h-2.239l.043-1.077c-.689.861-1.593 1.249-2.841 1.249-1.464 0-2.455-1.119-2.455-2.799 0-2.54 1.722-4.004 4.736-4.004.302 0 .69.043 1.077.086.086-.344.13-.473.13-.646 0-.689-.474-.947-1.722-.947-.776 0-1.679.086-2.282.258l-.345.129-.258.043.387-2.325c1.335-.388 2.239-.517 3.229-.517 2.325 0 3.53 1.033 3.53 3.013 0 .517 0 .905-.215 2.067l-.56 3.66-.086.645-.086.517-.043.388v.26zm7.233-10.419h-.258c-.903 0-1.42.431-2.239 1.679l.258-1.593H93.38l-1.636 10.333h2.669c.991-6.329 1.249-7.405 2.541-7.405h.172c.258-1.249.602-2.153 1.033-2.971l-.085-.043z"/></svg>