<svg xmlns="http://www.w3.org/2000/svg" viewBox="0 0 136 136"><path fill="#fff" d="M0 0h136v136H0z"/><path d="M62.131 48.759a2.746 2.746 0 011.179-.266h17.112c2.026 0 3.916.132 5.643.41.483.077.964.169 1.442.276.677.149 1.346.332 2.005.548.849.284 1.64.614 2.367 1.001.857-5.465-.006-9.182-2.961-12.548-3.254-3.707-9.131-5.296-16.651-5.296h-21.83a3.125 3.125 0 00-3.085 2.636l-9.088 57.638a1.872 1.872 0 001.85 2.166H53.59L60.611 50.8a2.737 2.737 0 011.52-2.041z" fill="#003085"/><path d="M91.655 52.005c-2.877 14.778-12.727 19.89-25.307 19.89h-6.405a3.11 3.11 0 00-3.073 2.636l-4.21 26.69a1.64 1.64 0 001.618 1.896h11.359a2.733 2.733 0 002.699-2.306l.111-.579 2.141-13.569.138-.75a2.733 2.733 0 012.698-2.306h1.7c11.004 0 19.62-4.47 22.138-17.399 1.051-5.403.507-9.914-2.273-13.083-.843-.96-1.89-1.752-3.11-2.399-.067.419-.139.842-.224 1.279z" fill="#019cde"/><path d="M88.867 49.526a21.276 21.276 0 00-1.358-.348 26.159 26.159 0 00-1.442-.274c-1.729-.28-3.618-.412-5.646-.412h-17.11a2.725 2.725 0 00-2.698 2.308l-3.637 23.059-.105.672a3.112 3.112 0 013.074-2.636h6.405c12.579 0 22.429-5.109 25.306-19.89.086-.437.158-.861.224-1.278a15.52 15.52 0 00-2.367-.999 20.157 20.157 0 00-.646-.202" fill="#022069"/></svg>